<?xml version="1.0" encoding="UTF-8" standalone="no"?>
<!-- Created with Inkscape (http://www.inkscape.org/) -->

<svg
   xmlns:dc="http://purl.org/dc/elements/1.1/"
   xmlns:cc="http://creativecommons.org/ns#"
   xmlns:rdf="http://www.w3.org/1999/02/22-rdf-syntax-ns#"
   xmlns:svg="http://www.w3.org/2000/svg"
   xmlns="http://www.w3.org/2000/svg"
   xmlns:sodipodi="http://sodipodi.sourceforge.net/DTD/sodipodi-0.dtd"
   xmlns:inkscape="http://www.inkscape.org/namespaces/inkscape"
   width="300"
   height="450"
   viewBox="0 0 79.374998 119.06251"
   version="1.1"
   id="svg8"
   inkscape:version="0.92.4 (5da689c313, 2019-01-14)"
   sodipodi:docname="weapon6.svg"
   inkscape:export-filename="D:\niebezpieczenstwo\EPI\Rok III\Interfejsy - projekt\miecze_i_topory\static\img\character\body1.png"
   inkscape:export-xdpi="158"
   inkscape:export-ydpi="158">
  <defs
     id="defs2" />
  <sodipodi:namedview
     id="base"
     pagecolor="#ffffff"
     bordercolor="#666666"
     borderopacity="1.0"
     inkscape:pageopacity="0.0"
     inkscape:pageshadow="2"
     inkscape:zoom="1.4"
     inkscape:cx="7.2103581"
     inkscape:cy="227.41138"
     inkscape:document-units="mm"
     inkscape:current-layer="layer1"
     showgrid="false"
     units="px"
     inkscape:snap-global="false"
     inkscape:window-width="1680"
     inkscape:window-height="987"
     inkscape:window-x="-4"
     inkscape:window-y="-4"
     inkscape:window-maximized="1" />
  <metadata
     id="metadata5">
    <rdf:RDF>
      <cc:Work
         rdf:about="">
        <dc:format>image/svg+xml</dc:format>
        <dc:type
           rdf:resource="http://purl.org/dc/dcmitype/StillImage" />
        <dc:title></dc:title>
      </cc:Work>
    </rdf:RDF>
  </metadata>
  <g
     inkscape:label="Layer 1"
     inkscape:groupmode="layer"
     id="layer1"
     transform="translate(0,-177.93746)">
    <path
       style="opacity:1;fill:#737373;fill-opacity:0.99541285;fill-rule:evenodd;stroke:none;stroke-width:0.17729555;stroke-miterlimit:4;stroke-dasharray:none;stroke-opacity:1"
       d="M 62.429448,287.68436 16.260222,265.97068 c -0.06338,-0.0295 -0.0837,-0.11458 -0.04761,-0.1867 l 1.844661,-3.68589 c 0.03612,-0.0722 0.115841,-0.10576 0.177976,-0.0738 l 45.391673,23.35444 c 1.79749,0.96019 3.517072,2.22437 3.418584,3.21702 0,0 -1.890793,0.4525 -4.616058,-0.9114 z"
       id="rect837"
       inkscape:connector-curvature="0"
       sodipodi:nodetypes="cssssccc" />
    <path
       style="opacity:1;fill:#1a1a1a;fill-opacity:0.99541285;fill-rule:evenodd;stroke:none;stroke-width:0.22188614;stroke-miterlimit:4;stroke-dasharray:none;stroke-opacity:1"
       d="m 15.900542,265.34971 c -2.756251,-1.65719 -9.0039651,-4.52082 -12.5102851,-6.72144 -0.0247,-0.87077 0.487345,-1.9092 1.001926,-2.58849 3.160408,1.36481 9.4776191,4.10817 13.1470761,5.94461 0.09787,0.049 0.147118,0.14631 0.111482,0.21866 l -1.412406,2.86766 c -0.03566,0.0724 -0.239918,0.32799 -0.337793,0.279 z"
       id="rect844"
       inkscape:connector-curvature="0"
       sodipodi:nodetypes="ccccssc" />
    <path
       style="opacity:1;fill:#4d4d4d;fill-opacity:0.99541285;fill-rule:evenodd;stroke:none;stroke-width:0.22188614;stroke-miterlimit:4;stroke-dasharray:none;stroke-opacity:1"
       d="m 16.364827,270.19866 c -1.775064,-3.40613 -1.13043,-8.76273 5.214232,-10.3651 0.05079,0.0254 0.42774,0.14049 0.58365,0.31223 0.144589,0.15913 0.07236,0.37587 0.03434,0.39482 -4.239234,2.11302 -6.030055,4.2721 -5.070979,9.36609 0.0077,0.0407 -0.05244,0.31645 -0.218283,0.37992 -0.188012,0.072 -0.487983,-0.0712 -0.542974,-0.0879 z"
       id="rect841"
       inkscape:connector-curvature="0"
       sodipodi:nodetypes="ccsssscc" />
    <path
       style="opacity:1;fill:#666666;fill-opacity:0.99541285;fill-rule:evenodd;stroke:none;stroke-width:0.18181439;stroke-miterlimit:4;stroke-dasharray:none;stroke-opacity:1"
       d="m 1.2191397,256.00471 c 0,0 2.2782966,-1.89057 3.3632103,-1.08869 0.7455676,0.55123 1.171206,1.89186 0.3515651,3.15739 -0.8003407,1.23573 -2.03791,1.59117 -2.6562507,1.36252 C 1.0991063,258.80833 1.1210148,256.9 1.2191397,256.00471 Z"
       id="path847"
       inkscape:connector-curvature="0"
       sodipodi:nodetypes="csscc"
       inkscape:transform-center-x="1.6704347"
       inkscape:transform-center-y="0.5345391" />
  </g>
</svg>
