<?xml version="1.0" encoding="UTF-8" standalone="no"?>
<!-- Created with Inkscape (http://www.inkscape.org/) -->

<svg
   xmlns:dc="http://purl.org/dc/elements/1.1/"
   xmlns:cc="http://creativecommons.org/ns#"
   xmlns:rdf="http://www.w3.org/1999/02/22-rdf-syntax-ns#"
   xmlns:svg="http://www.w3.org/2000/svg"
   xmlns="http://www.w3.org/2000/svg"
   xmlns:sodipodi="http://sodipodi.sourceforge.net/DTD/sodipodi-0.dtd"
   xmlns:inkscape="http://www.inkscape.org/namespaces/inkscape"
   width="300"
   height="450"
   viewBox="0 0 79.374998 119.06251"
   version="1.1"
   id="svg8"
   inkscape:version="0.92.4 (5da689c313, 2019-01-14)"
   sodipodi:docname="beard1.svg"
   inkscape:export-filename="D:\niebezpieczenstwo\EPI\Rok III\Interfejsy - projekt\miecze_i_topory\static\img\character\beard3.png"
   inkscape:export-xdpi="158"
   inkscape:export-ydpi="158">
  <defs
     id="defs2" />
  <sodipodi:namedview
     id="base"
     pagecolor="#ffffff"
     bordercolor="#666666"
     borderopacity="1.0"
     inkscape:pageopacity="0.0"
     inkscape:pageshadow="2"
     inkscape:zoom="3.959798"
     inkscape:cx="173.44136"
     inkscape:cy="380.80071"
     inkscape:document-units="mm"
     inkscape:current-layer="layer1"
     showgrid="false"
     units="px"
     inkscape:snap-global="false"
     inkscape:window-width="1680"
     inkscape:window-height="987"
     inkscape:window-x="-4"
     inkscape:window-y="-4"
     inkscape:window-maximized="1" />
  <metadata
     id="metadata5">
    <rdf:RDF>
      <cc:Work
         rdf:about="">
        <dc:format>image/svg+xml</dc:format>
        <dc:type
           rdf:resource="http://purl.org/dc/dcmitype/StillImage" />
        <dc:title />
      </cc:Work>
    </rdf:RDF>
  </metadata>
  <g
     inkscape:label="Layer 1"
     inkscape:groupmode="layer"
     id="layer1"
     transform="translate(0,-177.93746)">
    <g
       id="g924">
      <ellipse
         transform="matrix(-0.58012734,-0.81452579,0.85474514,-0.51904793,0,0)"
         ry="3.3941002"
         rx="7.5842915"
         cy="-136.02367"
         cx="-267.81104"
         id="path885"
         style="opacity:1;fill:#ffcc00;fill-opacity:1;stroke:none;stroke-width:0.09380402;stroke-miterlimit:4;stroke-dasharray:none;stroke-opacity:1" />
      <path
         sodipodi:nodetypes="sssssssss"
         inkscape:connector-curvature="0"
         id="rect883-7"
         d="m 44.397751,259.80539 3.817515,-0.24714 c 0.318096,-0.0205 0.586429,0.21489 0.611999,0.52719 0.716987,8.75836 3.426295,17.87144 1.755986,26.20471 -0.06162,0.30743 -0.218265,0.58096 -0.536361,0.60154 l -3.817515,0.24714 c -0.318096,0.0206 -0.467121,-0.24807 -0.611999,-0.52718 -4.264622,-8.21591 -1.310896,-17.45002 -1.755987,-26.20471 -0.016,-0.31295 0.218266,-0.58094 0.536362,-0.60155 z"
         style="opacity:1;fill:#ffcc00;fill-opacity:1;stroke:none;stroke-width:0.08484767;stroke-miterlimit:4;stroke-dasharray:none;stroke-opacity:1" />
      <ellipse
         transform="matrix(-0.60980924,-0.79254823,0.80255745,-0.59657484,0,0)"
         ry="3.029331"
         rx="6.9532809"
         cy="-135.94138"
         cx="-260.23743"
         id="path885-5"
         style="opacity:1;fill:#ffcc00;fill-opacity:1;stroke:none;stroke-width:0.08485352;stroke-miterlimit:4;stroke-dasharray:none;stroke-opacity:1" />
      <path
         sodipodi:nodetypes="sssssssss"
         inkscape:connector-curvature="0"
         id="rect883"
         d="m 35.290085,258.97031 h 4.358007 c 0.363131,0 0.650199,0.26997 0.655474,0.60525 0.147867,9.40178 2.533278,19.32009 0,28.10296 -0.09345,0.32401 -0.292343,0.60526 -0.655474,0.60526 h -4.358007 c -0.363133,0 -0.512059,-0.2972 -0.655476,-0.60526 -4.221601,-9.0678 -0.160903,-18.72388 0,-28.10296 0.0057,-0.33528 0.292343,-0.60525 0.655476,-0.60525 z"
         style="opacity:1;fill:#ffcc00;fill-opacity:1;stroke:none;stroke-width:0.09367852;stroke-miterlimit:4;stroke-dasharray:none;stroke-opacity:1" />
      <ellipse
         ry="11.385141"
         rx="10.345499"
         cy="193.66934"
         cx="39.736664"
         id="path817"
         style="opacity:1;fill:#ffcc00;fill-opacity:1;stroke:none;stroke-width:0.08299516;stroke-miterlimit:4;stroke-dasharray:none;stroke-opacity:1" />
      <path
         sodipodi:nodetypes="sssssssss"
         inkscape:connector-curvature="0"
         id="rect819"
         d="m 36.707321,202.89521 6.625589,-2.48639 c 0.33641,-0.12631 1.155272,4.13758 1.080646,4.46571 -0.503013,2.21176 1.594823,4.15669 2.605561,6.21314 0.150075,0.30533 -2.897903,-1.06037 -3.261037,-1.06037 h -7.192483 c -0.363132,0 -2.583865,1.37535 -2.459325,1.06037 0.811875,-2.05338 2.8526,-4.00359 1.803851,-6.21314 -0.145753,-0.3071 0.460788,-1.85307 0.797198,-1.97932 z"
         style="opacity:1;fill:#ffcc00;fill-opacity:1;stroke:none;stroke-width:0.09367852;stroke-miterlimit:4;stroke-dasharray:none;stroke-opacity:1" />
      <ellipse
         ry="15.180189"
         rx="33.163383"
         cy="224.94576"
         cx="39.878395"
         id="path821"
         style="opacity:1;fill:#ffcc00;fill-opacity:1;stroke:none;stroke-width:0.15827398;stroke-miterlimit:4;stroke-dasharray:none;stroke-opacity:1" />
      <path
         sodipodi:nodetypes="sssss"
         inkscape:connector-curvature="0"
         id="path823"
         d="m 62.270762,235.70671 c -9.970803,10.71319 -10.090338,29.05977 -20.408237,29.28332 -11.057794,0.23957 -11.514735,-19.31539 -24.81765,-29.65346 -11.1985651,-8.70272 13.546497,-19.28956 24.81765,-19.28956 11.271156,0 29.948107,9.40952 20.408237,19.6597 z"
         style="opacity:1;fill:#ffcc00;fill-opacity:1;stroke:none;stroke-width:0.08778077;stroke-miterlimit:4;stroke-dasharray:none;stroke-opacity:1" />
      <ellipse
         ry="19.709869"
         rx="6.6141171"
         cy="240.02101"
         cx="9.6251717"
         id="path829"
         style="opacity:1;fill:#ffcc00;fill-opacity:1;stroke:none;stroke-width:0.09367852;stroke-miterlimit:4;stroke-dasharray:none;stroke-opacity:1" />
      <ellipse
         ry="19.709869"
         rx="6.6141171"
         cy="240.29861"
         cx="69.553085"
         id="path829-1"
         style="opacity:1;fill:#ffcc00;fill-opacity:1;stroke:none;stroke-width:0.09367852;stroke-miterlimit:4;stroke-dasharray:none;stroke-opacity:1" />
      <path
         sodipodi:nodetypes="sssssccccccssss"
         inkscape:connector-curvature="0"
         id="rect865-9"
         d="m 34.069633,259.47796 h 13.912623 c 0.281244,0 0.430755,0.2196 0.50766,0.4701 1.384908,4.51083 -1.839069,8.21356 0,10.64702 0.254985,0.33741 -0.524129,0.85682 -0.607872,0.6089 l -1.418601,-4.19957 -2.600107,4.06076 -1.008997,-4.56385 -1.102273,4.934 -3.515825,-5.61679 -0.778564,5.43171 -2.301435,-3.99428 c -0.132463,-0.22989 -1.550206,3.59633 -1.594272,3.33912 -0.565754,-3.30247 -1.1496,-6.59707 0,-10.64702 0.07149,-0.25189 0.226418,-0.4701 0.507663,-0.4701 z"
         style="opacity:1;fill:#2b1100;fill-opacity:1;stroke:none;stroke-width:0.06315529;stroke-miterlimit:4;stroke-dasharray:none;stroke-opacity:1" />
      <path
         sodipodi:nodetypes="sssssccccccssss"
         inkscape:connector-curvature="0"
         id="rect865"
         d="m 32.455603,257.00736 h 17.9635 c 0.36313,0 0.556173,0.28273 0.655474,0.60524 1.788145,5.80767 1.409199,10.11456 0,13.70798 -0.123645,0.31526 -0.292344,0.60524 -0.655474,0.60524 l -1.961042,-5.2282 -3.357166,5.2282 -1.302782,-5.87594 -5.110908,5.87594 -0.851817,-6.75503 -3.657808,6.75503 -0.318982,-4.90434 c -0.02176,-0.33469 -2.001573,4.63026 -2.058469,4.2991 -0.730482,-4.25192 -1.484326,-8.49368 0,-13.70798 0.09231,-0.32428 0.292343,-0.60524 0.655474,-0.60524 z"
         style="opacity:1;fill:#552200;fill-opacity:1;stroke:none;stroke-width:0.08142788;stroke-miterlimit:4;stroke-dasharray:none;stroke-opacity:1" />
      <ellipse
         ry="4.8117995"
         rx="3.9083424"
         cy="260.65628"
         cx="10.727522"
         id="path906"
         style="opacity:1;fill:#ffcc00;fill-opacity:1;stroke:none;stroke-width:0.0761634;stroke-miterlimit:4;stroke-dasharray:none;stroke-opacity:1" />
      <ellipse
         ry="4.8117995"
         rx="3.9083424"
         cy="260.65628"
         cx="69.753517"
         id="path906-4"
         style="opacity:1;fill:#ffcc00;fill-opacity:1;stroke:none;stroke-width:0.0761634;stroke-miterlimit:4;stroke-dasharray:none;stroke-opacity:1" />
    </g>
    <path
       style="opacity:1;fill:#ff6600;fill-opacity:1;stroke:none;stroke-width:0.30000001;stroke-miterlimit:4;stroke-dasharray:none;stroke-opacity:1"
       d="m 47.350902,204.27962 c -0.233527,0.32598 -0.464183,0.64083 -0.693068,0.89972 -0.408275,0.4618 -0.700173,0.90462 -0.902854,1.40768 -0.434888,1.0794 -0.136466,1.65165 -0.638529,2.69967 -0.399723,0.83441 -1.34488,1.44451 -1.603417,2.27549 -0.331889,1.06676 -0.155961,2.28146 -0.59145,3.07191 -0.654557,1.18809 -1.516274,1.95144 -2.856108,1.95144 -0.73356,0 -0.954277,-1.44034 -1.460044,-1.81618 -0.735763,-0.54676 -1.601506,0.50821 -2.124411,-1.30485 -0.21388,-0.74159 -0.382843,-1.97126 -0.500426,-2.57388 -0.113431,-0.58134 -1.00201,-0.81292 -1.206872,-1.40837 -0.324873,-0.94428 -0.285242,-1.8002 -0.632443,-2.78159 -0.350808,-0.99159 -0.882365,-1.81221 -1.546223,-2.56645 -0.875168,-0.85555 -1.658331,-1.94994 -2.053922,-2.95183 -1.14701,-4.40082 -0.888954,-5.36879 0.132394,-4.81182 0.39041,0.2129 0.290993,0.88248 0.868615,1.43445 0.121289,0.11591 0.947496,0.8383 1.075127,0.96347 0.507849,0.49805 1.063277,1.02823 1.645379,1.5952 0.459141,0.44721 1.569643,0.69607 2.051714,1.11699 1.470489,1.28396 2.264936,1.70235 3.562124,1.59222 0.996946,-0.0846 2.241684,-0.49803 3.304888,-1.32247 0.464449,-0.36015 1.327037,-0.59344 1.778016,-1.0074 0.704723,-0.64687 1.416716,-1.26021 2.038866,-1.87228 0.485855,-0.47799 0.335938,-1.34878 0.738533,-1.69547 1.65513,-1.42531 2.484725,-1.33317 1.486276,3.63025 -0.535802,1.49505 -1.086609,2.3765 -1.872165,3.4741 z"
       id="path949"
       inkscape:connector-curvature="0"
       sodipodi:nodetypes="csssssssssssccsssssssssscc" />
    <path
       style="opacity:1;fill:#ff6600;fill-opacity:1;stroke:none;stroke-width:0.30000001;stroke-miterlimit:4;stroke-dasharray:none;stroke-opacity:1"
       d="m 31.868117,200.61603 c 0.431885,0 0.929112,0.3744 0.779576,0.77957 -0.435909,1.1811 -0.806991,2.36219 -0.298871,3.54329 0.239845,0.3703 0.333143,0.72904 0.392253,1.13111 0.355247,3.74177 -2.495487,7.13525 -0.09338,11.01162 0.06171,0.42745 -0.347691,0.77957 -0.779576,0.77957 -0.431885,0 -0.746614,-0.34895 -0.779576,-0.77957 -0.159151,-2.07916 -1.033733,-4.12426 0,-6.26023 0.243653,-1.79079 1.305063,-3.46043 0,-5.48066 -0.550081,-1.31504 -0.388927,-2.63009 0,-3.94513 0.122485,-0.41415 0.347691,-0.77957 0.779576,-0.77957 z"
       id="rect998"
       inkscape:connector-curvature="0"
       sodipodi:nodetypes="cscccssccssc" />
    <rect
       style="opacity:1;fill:#ff6600;fill-opacity:1;stroke:none;stroke-width:0.30000001;stroke-miterlimit:4;stroke-dasharray:none;stroke-opacity:1"
       id="rect1000"
       width="1.3701636"
       height="17.056175"
       x="46.869045"
       y="200.994"
       ry="0.68508178" />
  </g>
</svg>
