<?xml version="1.0" encoding="UTF-8" standalone="no"?>
<!-- Created with Inkscape (http://www.inkscape.org/) -->

<svg
   xmlns:dc="http://purl.org/dc/elements/1.1/"
   xmlns:cc="http://creativecommons.org/ns#"
   xmlns:rdf="http://www.w3.org/1999/02/22-rdf-syntax-ns#"
   xmlns:svg="http://www.w3.org/2000/svg"
   xmlns="http://www.w3.org/2000/svg"
   xmlns:sodipodi="http://sodipodi.sourceforge.net/DTD/sodipodi-0.dtd"
   xmlns:inkscape="http://www.inkscape.org/namespaces/inkscape"
   width="213"
   height="245"
   viewBox="0 0 56.356263 64.823068"
   version="1.1"
   id="svg8"
   inkscape:export-filename="D:\niebezpieczenstwo\EPI\Rok III\Interfejsy - projekt\miecze_i_topory\static\img\character\hair7.png"
   inkscape:export-xdpi="158"
   inkscape:export-ydpi="158"
   inkscape:version="0.92.4 (5da689c313, 2019-01-14)"
   sodipodi:docname="hair5.svg">
  <defs
     id="defs2" />
  <sodipodi:namedview
     id="base"
     pagecolor="#ffffff"
     bordercolor="#666666"
     borderopacity="1.0"
     inkscape:pageopacity="0.0"
     inkscape:pageshadow="2"
     inkscape:zoom="5.6"
     inkscape:cx="120.77501"
     inkscape:cy="210.46101"
     inkscape:document-units="px"
     inkscape:current-layer="layer1"
     showgrid="false"
     units="px"
     inkscape:window-width="1680"
     inkscape:window-height="987"
     inkscape:window-x="-4"
     inkscape:window-y="-4"
     inkscape:window-maximized="1" />
  <metadata
     id="metadata5">
    <rdf:RDF>
      <cc:Work
         rdf:about="">
        <dc:format>image/svg+xml</dc:format>
        <dc:type
           rdf:resource="http://purl.org/dc/dcmitype/StillImage" />
        <dc:title></dc:title>
      </cc:Work>
    </rdf:RDF>
  </metadata>
  <g
     inkscape:label="Layer 1"
     inkscape:groupmode="layer"
     id="layer1"
     transform="translate(0,-232.17638)">
    <path
       style="fill:#ffe100;stroke:none;stroke-width:0.26458395px;stroke-linecap:butt;stroke-linejoin:miter;stroke-opacity:1;fill-opacity:1"
       d="m 21.39343,234.82301 c 0.617367,0.12573 1.237665,0.23784 1.852101,0.37719 0.122872,0.0279 -0.251985,0 -0.377977,0 -0.122022,0 -0.676412,0.0331 -0.755954,0 -1.309615,-0.54453 -0.205201,-0.63825 -1.700897,0.56696 -0.04905,0.0395 -0.144444,-0.0445 -0.188989,0 -0.04454,0.0446 0.04455,0.14445 0,0.18899 -0.08909,0.0891 -0.288887,-0.0891 -0.377977,0 -0.04454,0.0445 0.04454,0.14444 0,0.18899 -0.08909,0.0891 -0.288887,-0.0891 -0.377977,0 -0.04454,0.0445 0,0.12599 0,0.18899 -0.063,0 -0.144444,-0.0445 -0.188989,0 -0.04454,0.0445 0.04454,0.14444 0,0.18899 -0.09449,0.0945 -0.472471,-0.0945 -0.566965,0 -0.04454,0.0445 0.04454,0.14444 0,0.18898 -0.04548,0.0455 -0.710478,-0.0455 -0.755954,0 -0.04455,0.0446 0.04454,0.14445 0,0.18899 -0.0945,0.0945 -0.472472,-0.0945 -0.566966,0 -0.04454,0.0445 0.04454,0.14445 0,0.18899 -0.04454,0.0445 -0.132643,-0.0282 -0.188989,0 -0.07968,0.0398 -0.109303,0.14915 -0.188988,0.18899 -0.112691,0.0564 -0.288887,-0.0891 -0.377977,0 -0.04455,0.0446 0.04454,0.14444 0,0.18899 -0.04455,0.0445 -0.125993,0 -0.188989,0 -0.063,0 -0.125992,0 -0.188988,0 -0.440973,0 -0.881947,0 -1.32292,0 -0.063,0 -0.144443,-0.0446 -0.188988,0 -0.08909,0.0891 0.08909,0.28889 0,0.37798 -0.08909,0.0891 -0.288887,-0.0891 -0.377978,0 -0.04454,0.0445 0.04455,0.14444 0,0.18898 -0.04454,0.0445 -0.144443,-0.0445 -0.188988,0 -0.04454,0.0445 0.04455,0.14445 0,0.18899 -0.04454,0.0446 -0.144444,-0.0445 -0.188989,0 -0.04454,0.0446 0.04454,0.14445 0,0.18899 -0.04454,0.0445 -0.144443,-0.0445 -0.188988,0 -0.04454,0.0445 0.02817,0.13264 0,0.18899 -0.03984,0.0797 -0.149146,0.1093 -0.188989,0.18899 -0.03747,0.0749 0.03864,0.52833 0,0.56696 -0.04455,0.0445 -0.144443,-0.0445 -0.188988,0 -0.04454,0.0445 0,0.126 0,0.18899 0,0.37798 0,0.75596 0,1.13393 0,0.0694 0.0076,0.74835 0,0.75596 -0.04454,0.0445 -0.144444,-0.0446 -0.188989,0 -0.09449,0.0945 0.09449,0.47247 0,0.56696 -0.04455,0.0445 -0.144443,-0.0445 -0.188988,0 -0.04455,0.0445 0.04454,0.14445 0,0.18899 -0.04455,0.0446 -0.144444,-0.0445 -0.188989,0 -0.09449,0.0945 0.09449,0.47247 0,0.56697 -0.04454,0.0445 -0.144443,-0.0445 -0.188988,0 -0.08909,0.0891 0.08909,0.28889 0,0.37797 -0.04454,0.0446 -0.144444,-0.0445 -0.188989,0 -0.126368,0.12637 0.126369,0.25161 0,0.37798 -0.08909,0.0891 -0.288887,-0.0891 -0.377977,0 -0.08909,0.0891 0.08909,0.28889 0,0.37798 -0.04454,0.0445 -0.144443,-0.0445 -0.188989,0 -0.126368,0.12637 0.126369,0.25161 0,0.37798 -0.04455,0.0445 -0.144443,-0.0445 -0.188988,0 -0.04455,0.0445 0.04454,0.14444 0,0.18898 -0.04455,0.0445 -0.144444,-0.0445 -0.188988,0 -0.04455,0.0445 0.04454,0.14445 0,0.18899 -0.04455,0.0446 -0.144444,-0.0445 -0.188989,0 -0.126369,0.12637 0.126368,0.25161 0,0.37798 -0.04454,0.0445 -0.144444,-0.0445 -0.188989,0 -0.08909,0.0891 0.08909,0.28889 0,0.37798 -0.04454,0.0445 -0.144443,-0.0445 -0.188988,0 -0.126369,0.12637 0.126368,0.25161 0,0.37797 -0.251985,0.25199 -0.188989,-0.31498 -0.188989,0.18899 0,0.063 0.04454,0.14445 0,0.18899 -0.04455,0.0445 -0.144443,-0.0445 -0.188988,0 -0.0189,0.0189 -0.0189,0.54807 0,0.56697 0.0061,0.006 0.521131,0 0.566965,0 0.50397,0 -0.063,0.063 0.188989,-0.18899 0.08909,-0.0891 0.288887,0.0891 0.377977,0 0.04454,-0.0446 -0.04455,-0.14444 0,-0.18899 0.08909,-0.0891 0.288887,0.0891 0.377977,0 0.04454,-0.0445 -0.04454,-0.14444 0,-0.18899 0.09449,-0.0945 0.472471,0.0945 0.566966,0 0.08909,-0.0891 -0.08909,-0.28889 0,-0.37798 0.09449,-0.0945 0.472471,0.0945 0.566965,0 0.04454,-0.0445 -0.04455,-0.14444 0,-0.18898 0.08909,-0.0891 0.288887,0.0891 0.377977,0 0.04454,-0.0446 -0.04455,-0.14445 0,-0.18899 0.08909,-0.0891 0.288887,0.0891 0.377977,0 0.04454,-0.0445 -0.04454,-0.14445 0,-0.18899 0.08909,-0.0891 0.288887,0.0891 0.377977,0 0.04455,-0.0445 -0.04454,-0.14444 0,-0.18899 0.04455,-0.0445 0.144444,0.0445 0.188989,0 0.04454,-0.0445 -0.04455,-0.14444 0,-0.18899 0.04454,-0.0445 0.125992,0 0.188989,0 0.063,0 0.144443,-0.0445 0.188988,0 0.04454,0.0446 0.063,0.18899 0,0.18899 -0.063,0 0,-0.25198 0,-0.18899 0,0.12599 0.05635,0.26529 0,0.37798 -0.251985,0.50397 -0.188988,-0.56697 -0.188988,0.18899 0,0.063 0,0.12599 0,0.18899 0,0.063 0.04454,0.14444 0,0.18898 -0.04455,0.0446 -0.188989,0.063 -0.188989,0 0,-0.063 0.125992,0 0.188989,0 0.125992,0 0.251984,0 0.377977,0 0.503969,0 -0.063,0.063 0.188988,-0.18898 0.08909,-0.0891 0.288887,0.0891 0.377977,0 0.04455,-0.0446 -0.04454,-0.14445 0,-0.18899 0.04455,-0.0445 0.144444,0.0445 0.188989,0 0.04454,-0.0445 -0.04455,-0.14445 0,-0.18899 0.08909,-0.0891 0.288887,0.0891 0.377977,0 0.04454,-0.0445 -0.04454,-0.14444 0,-0.18899 0.04454,-0.0445 0.144443,0.0445 0.188988,0 0.04455,-0.0445 -0.04454,-0.14444 0,-0.18899 0.08909,-0.0891 0.288887,0.0891 0.377978,0 0.04454,-0.0445 -0.04455,-0.14444 0,-0.18899 0.04454,-0.0445 0.144443,0.0446 0.188988,0 0.04454,-0.0445 -0.04454,-0.14444 0,-0.18899 0.08909,-0.0891 0.265286,0.0563 0.377977,0 0.0492,-0.0246 0.23024,-0.33672 0.377977,-0.18898 0.0189,0.0189 0.0189,0.54806 0,0.56696 -0.04454,0.0446 -0.188989,0.063 -0.188989,0 0,-0.12599 0.288887,0.0891 0.377978,0 0.04454,-0.0445 -0.02817,-0.13264 0,-0.18899 0.07968,-0.15937 0.298292,-0.2186 0.377977,-0.37797 0.02817,-0.0563 -0.04454,-0.14445 0,-0.18899 0.04454,-0.0446 0.132643,0.0282 0.188988,0 0.03618,-0.0181 0.737866,-0.71978 0.755954,-0.75596 0.02817,-0.0563 -0.04454,-0.14444 0,-0.18899 0.04454,-0.0445 0.132643,0.0282 0.188989,0 0.07968,-0.0398 0.109304,-0.14914 0.188988,-0.18898 0.05635,-0.0282 0.144444,0.0445 0.188989,0 0.04454,-0.0446 -0.04454,-0.14445 0,-0.18899 0.04454,-0.0445 0.144443,0.0445 0.188989,0 0.04454,-0.0445 -0.04455,-0.14445 0,-0.18899 0.04454,-0.0446 0.144443,-0.0446 0.188988,0 0.04455,0.0445 0.04455,0.14444 0,0.18899 -0.04454,0.0445 -0.144443,-0.0445 -0.188988,0 -0.08909,0.0891 0.08909,0.28889 0,0.37797 -0.04455,0.0446 -0.144444,-0.0445 -0.188989,0 -0.126369,0.12637 0.126368,0.25161 0,0.37798 -0.04454,0.0445 -0.188989,0.063 -0.188989,0 0,-0.0891 0.149147,-0.1093 0.188989,-0.18899 0.02817,-0.0563 -0.04454,-0.14444 0,-0.18899 0.04454,-0.0445 0.132643,0.0282 0.188989,0 0.07968,-0.0398 0.109303,-0.14914 0.188988,-0.18898 0.05635,-0.0282 0.144443,0.0445 0.188989,0 0.04454,-0.0446 -0.04455,-0.14445 0,-0.18899 0.04454,-0.0445 0.144443,0.0445 0.188988,0 0.04454,-0.0445 -0.04454,-0.14445 0,-0.18899 0.04454,-0.0446 0.132643,0.0282 0.188989,0 0.07968,-0.0398 0.109304,-0.14915 0.188988,-0.18899 0.05635,-0.0282 0.144444,0.0445 0.188989,0 0.04454,-0.0445 -0.04454,-0.14444 0,-0.18899 0.08909,-0.0891 0.288887,0.0891 0.377977,0 0.04455,-0.0445 -0.02817,-0.13264 0,-0.18899 0.03984,-0.0797 0.125992,-0.12599 0.188988,-0.18898 0.063,-0.063 0.109304,-0.14915 0.188989,-0.18899 0.05635,-0.0282 0.132643,0.0282 0.188989,0 0.07968,-0.0399 0.0999,-0.18899 0.188988,-0.18899 0.063,0 0,0.12599 0,0.18899 0,0.52334 -0.188988,-0.14537 -0.188988,0.37797 0,0.50397 0.063,-0.063 -0.188989,0.18899 -0.04454,0.0446 0.02817,0.13265 0,0.18899 -0.07969,0.15937 -0.298293,0.21861 -0.377977,0.37798 -0.05635,0.11269 0.08909,0.28889 0,0.37797 -0.04454,0.0446 -0.144444,-0.0445 -0.188989,0 -0.0061,0.006 0,0.52114 0,0.56697 0,0.063 0,0.12599 0,0.18899 0,0.063 0.04454,0.14444 0,0.18899 -0.04454,0.0445 -0.251984,0 -0.188988,0 0.125992,0 0.251984,0 0.377977,0 0.063,0 0.132643,0.0282 0.188988,0 0.07968,-0.0398 0.109304,-0.14915 0.188989,-0.18899 0.112691,-0.0563 0.288887,0.0891 0.377977,0 0.04454,-0.0445 0,-0.12599 0,-0.18899 0.063,0 0.144443,0.0446 0.188988,0 0.04455,-0.0445 -0.04454,-0.14444 0,-0.18899 0.08909,-0.0891 0.288888,0.0891 0.377978,0 0.04455,-0.0445 0,-0.12599 0,-0.18899 0.063,0 0.144443,0.0446 0.188988,0 0.04454,-0.0445 -0.04454,-0.14444 0,-0.18899 0.04454,-0.0445 0.144444,0.0446 0.188989,0 0.04454,-0.0445 -0.04454,-0.14444 0,-0.18898 0.04454,-0.0446 0.144443,0.0445 0.188988,0 0.04454,-0.0446 -0.04455,-0.14445 0,-0.18899 0.08909,-0.0891 0.288887,0.0891 0.377977,0 0.04454,-0.0445 -0.063,-0.18899 0,-0.18899 0.08909,0 0.109304,0.14915 0.188989,0.18899 0.03877,0.0194 0.540313,0.0267 0.566965,0 0.04455,-0.0445 -0.04454,-0.14445 0,-0.18899 0.08909,-0.0891 0.265287,0.0563 0.377977,0 0.07969,-0.0398 0.104471,-0.16082 0.188989,-0.18899 0.86033,0 0.01081,0.0891 0.566966,-0.18899 0.112691,-0.0563 0.288887,0.0891 0.377977,0 0.04454,-0.0445 -0.04455,-0.14444 0,-0.18899 0.08909,-0.0891 0.288887,0.0891 0.377977,0 0.04454,-0.0445 -0.04454,-0.14444 0,-0.18898 0.01889,-0.0189 0.548067,-0.0189 0.566966,0 0.0076,0.008 0,0.68655 0,0.75595 0,0.063 0.04454,0.14444 0,0.18899 -0.04454,0.0445 -0.144444,-0.0445 -0.18899,0 -0.04454,0.0445 -0.04454,0.14444 0,0.18899 0.04455,0.0445 0.125993,0 0.18899,0 0.063,0 0.125992,0 0.188987,0 0.063,0 0.125992,0 0.18899,0 0.06299,0 0.144444,0.0445 0.188987,0 0.04455,-0.0446 -0.04454,-0.14445 0,-0.18899 0.04455,-0.0445 0.144444,0.0445 0.188989,0 0.04455,-0.0445 -0.04455,-0.14445 0,-0.18899 0.04455,-0.0446 0.125993,0 0.18899,0 0.063,0 0.125992,0 0.188987,0 0.377977,0 0.755954,0 1.133933,0 0.063,0 0.144442,-0.0446 0.188987,0 0.251984,0.25198 -0.314979,0.18899 0.18899,0.18899 0.04583,0 0.560886,-0.006 0.566963,0 0.04455,0.0445 -0.04454,0.14444 0,0.18899 0.04455,0.0445 0.125993,0 0.18899,0 0.314982,0 0.629961,0 0.944943,0 0.063,0 0.144444,-0.0446 0.188987,0 0.04454,0.0445 -0.04454,0.14444 0,0.18898 0.04454,0.0446 0.132644,-0.0282 0.18899,0 0.07968,0.0399 0.109305,0.14915 0.188989,0.18899 0.01611,0.008 0.739843,0.008 0.755954,0 0.382226,-0.19111 0.0606,-0.43858 0.188987,-0.56696 0.04454,-0.0445 0.144444,0.0445 0.188989,0 0.09449,-0.0945 -0.09449,-0.47247 0,-0.56697 0.04455,-0.0445 0.144445,0.0446 0.18899,0 0.126368,-0.12637 -0.12637,-0.25161 0,-0.37797 0.04454,-0.0445 0.144442,0.0445 0.188987,0 0.0061,-0.006 0,-0.52114 0,-0.56697 0,-0.0891 0.0086,-0.93638 0,-0.94494 -0.04454,-0.0445 -0.144444,0.0445 -0.188987,0 -0.12637,-0.12637 0.126368,-0.25161 0,-0.37798 -0.04454,-0.0446 -0.144444,0.0445 -0.18899,0 -0.04454,-0.0446 0.04455,-0.14444 0,-0.18899 -0.04454,-0.0445 -0.132643,0.0282 -0.188989,0 -0.786524,-0.39326 0.202036,0.0131 -0.188987,-0.37798 -0.04455,-0.0445 -0.144445,0.0445 -0.18899,0 -0.08909,-0.0891 0.08909,-0.28888 0,-0.37797 -0.04454,-0.0446 -0.144442,0.0445 -0.188987,0 -0.04454,-0.0446 0,-0.126 0,-0.18899 0,-0.063 0,-0.12599 0,-0.18899 0,-0.50397 0.063,0.063 -0.18899,-0.18899 -0.04454,-0.0445 0.04455,-0.14444 0,-0.18899 -0.04454,-0.0445 -0.144444,0.0446 -0.188987,0 -0.0945,-0.0945 0.09449,-0.47247 0,-0.56696 -0.04454,-0.0445 -0.144444,0.0445 -0.188989,0 -0.04455,-0.0445 0.04454,-0.14445 0,-0.18899 -0.04455,-0.0446 -0.144445,0.0445 -0.18899,0 -0.04454,-0.0446 0.04454,-0.14444 0,-0.18899 -0.0061,-0.006 -0.52113,0 -0.566964,0 -0.063,0 -0.125992,0 -0.188989,0 -0.063,0 -0.144445,0.0446 -0.188987,0 -0.04455,-0.0445 0.04454,-0.14444 0,-0.18899 -0.04455,-0.0445 -0.125993,0 -0.18899,0 -0.314982,0 -0.629961,0 -0.944943,0 -0.063,0 -0.144444,0.0445 -0.188987,0 -0.04454,-0.0445 0.04454,-0.14444 0,-0.18899 -0.03864,-0.0386 -0.492034,0.0375 -0.566966,0 -0.07969,-0.0398 -0.109305,-0.14914 -0.18899,-0.18899 -0.112689,-0.0563 -0.288886,0.0891 -0.377977,0 -0.04454,-0.0445 0.04455,-0.14444 0,-0.18898 -0.04548,-0.0455 -0.710477,0.0455 -0.755953,0 -0.04455,-0.0446 0.04454,-0.14445 0,-0.18899 -0.0061,-0.006 -0.521133,0 -0.566967,0 -0.440972,0 -0.881946,0 -1.322919,0 -0.063,0 -0.144443,0.0445 -0.188988,0 -0.04455,-0.0445 0.04455,-0.14445 0,-0.18899 -0.09449,-0.0945 -0.472472,0.0945 -0.566966,0 -0.04455,-0.0445 0.04454,-0.14444 0,-0.18899 -0.04455,-0.0445 -0.125992,0 -0.188989,0 -0.08911,0 -0.936377,0.009 -0.944942,0 -0.04454,-0.0445 0.04454,-0.14444 0,-0.18899 -0.09449,-0.0945 -0.472472,0.0945 -0.566966,0 -0.04454,-0.0445 0.04454,-0.14444 0,-0.18899 -0.04548,-0.0455 -0.710477,0.0455 -0.755954,0 -0.04455,-0.0445 0.04454,-0.14444 0,-0.18898 -0.04455,-0.0446 -0.135547,0.0333 -0.188988,0 -0.258603,-0.1614 -0.47878,-0.37746 -0.71817,-0.56618 z"
       id="path912"
       inkscape:connector-curvature="0" />
    <path
       style="fill:#ffe100;stroke:none;stroke-width:0.26458395px;stroke-linecap:butt;stroke-linejoin:miter;stroke-opacity:1;fill-opacity:1"
       d="m 21.39343,234.82301 c 0.09765,0.0155 0.194986,0.0331 0.292945,0.0465 0.110854,0.0151 -6.08e-4,6.1e-4 0.04725,-0.0473 0.01114,-0.0111 0.0315,0 0.04725,0 0.09449,0 0.188988,0 0.283482,0 0.236236,0 0.472472,0 0.708707,0 0.01146,0 0.140222,0.002 0.141742,0 0.01114,-0.0111 -0.01114,-0.0361 0,-0.0472 0.0015,-0.002 0.130282,0 0.141741,0 0.236236,0 0.472472,0 0.708707,0 0.141742,0 0.283483,0 0.425224,0 0.02471,0 0.176566,-0.006 0.188989,0 0.01992,0.01 0.02733,0.0373 0.04725,0.0472 0.01873,0.009 0.132082,-0.01 0.141741,0 0.01114,0.0111 -0.01114,0.0361 0,0.0473 0.01114,0.0111 0.0315,0 0.04725,0 0.09449,0 0.188989,0 0.283483,0 0.01575,0 0.03611,-0.0111 0.04725,0 0.01114,0.0111 -0.01114,0.0361 0,0.0472 0.01114,0.0111 0.0315,0 0.04725,0 0.01575,0 0.0315,0 0.04725,0 0.09449,0 0.188988,0 0.283483,0 0.01575,0 0.0315,0 0.04725,0 0.01575,0 0.03316,-0.007 0.04725,0 0.01992,0.01 0.02612,0.0402 0.04725,0.0472 0.215082,0 0.0027,-0.0223 0.141741,0.0473 0.02981,0.0149 0.206429,-0.0149 0.236236,0 0.01992,0.01 0.02733,0.0373 0.04725,0.0472 0.01409,0.007 0.0315,0 0.04725,0 0.01575,0 0.0315,0 0.04725,0 0.01146,0 0.140222,-0.002 0.141742,0 0.01114,0.0111 -0.01114,0.0361 0,0.0472 0.01114,0.0111 0.0315,0 0.04725,0 0.03286,0 0.219149,-0.009 0.236236,0 0.01992,0.01 0.02733,0.0373 0.04725,0.0472 0.01873,0.009 0.132083,-0.01 0.14174,0 0.01114,0.0111 -0.01114,0.0361 0,0.0472 0.01114,0.0111 0.0315,0 0.04725,0 0.01574,0 0.0315,0 0.04725,0 0.09449,0 0.188987,0 0.283483,0 0.01574,0 0.03611,-0.0111 0.04725,0 0.01114,0.0111 -0.01114,0.0361 0,0.0472 0.01659,0.0166 0.2036,-0.0163 0.236234,0 0.01992,0.01 0.02733,0.0373 0.04725,0.0472 0.02564,0.0128 0.17606,-0.0129 0.188987,0 0.01114,0.0111 -0.01114,0.0361 0,0.0472 0.01463,0.0146 0.221605,-0.0146 0.236237,0 0.01114,0.0111 -0.01114,0.0361 0,0.0473 0.01114,0.0111 0.0315,0 0.04725,0 0.03286,0 0.21915,-0.009 0.236237,0 0.01992,0.01 0.02733,0.0373 0.04725,0.0472 0.01873,0.009 0.132083,-0.01 0.14174,0 0.01114,0.0111 -0.01114,0.0361 0,0.0472 0.01114,0.0111 0.03611,-0.0111 0.04725,0 0.01114,0.0111 -0.01114,0.0361 0,0.0473 0.01659,0.0166 0.203602,-0.0163 0.236236,0 0.01992,0.01 0.02733,0.0373 0.04725,0.0472 0.05058,0.0253 0.10083,-0.0409 0.18899,0.0472 0.01114,0.0111 -0.01114,0.0361 0,0.0473 0.01114,0.0111 0.0315,0 0.04725,0 0.01574,0 0.0315,0 0.04725,0 0.01574,0 0.0315,0 0.04725,0 0.01574,0 0.03611,-0.0111 0.04725,0 0.01114,0.0111 -0.01114,0.0361 0,0.0472 0.02363,0.0236 0.118118,-0.0236 0.141742,0 0.01114,0.0111 -0.01114,0.0361 0,0.0472 0.02228,0.0223 0.07222,-0.0223 0.09449,0 0.01114,0.0111 -0.01114,0.0361 0,0.0473 0.02228,0.0223 0.06632,-0.0141 0.09449,0 0.01992,0.01 0.02733,0.0373 0.04725,0.0472 0.01873,0.009 0.13208,-0.01 0.14174,0 0.01114,0.0111 -0.01114,0.0361 0,0.0472 0.02363,0.0236 0.118118,-0.0236 0.14174,0 0.01114,0.0111 -0.01114,0.0361 0,0.0473 0.02228,0.0223 0.07222,-0.0223 0.0945,0 0.01114,0.0111 -0.01114,0.0361 0,0.0472 0.02363,0.0236 0.118118,-0.0236 0.14174,0 0.01114,0.0111 -0.01114,0.0361 0,0.0472 0.02228,0.0223 0.06632,-0.0141 0.09449,0 0.01992,0.01 0.02733,0.0373 0.04725,0.0473 0.02817,0.0141 0.07222,-0.0223 0.09449,0 0.01114,0.0111 -0.01114,0.0361 0,0.0472 0.02228,0.0223 0.06632,-0.0141 0.09449,0 0.01992,0.01 0.02733,0.0373 0.04725,0.0472 0.01408,0.007 0.03316,-0.007 0.04725,0 0.01992,0.01 0.02733,0.0373 0.04725,0.0472 0.02817,0.0141 0.07222,-0.0223 0.09449,0 0.01114,0.0111 -0.01114,0.0361 0,0.0472 0.01114,0.0111 0.03611,-0.0111 0.04725,0 0.01114,0.0111 -0.01114,0.0361 0,0.0472 0.01114,0.0111 0.03316,-0.007 0.04725,0 0.01992,0.01 0.02733,0.0373 0.04725,0.0472 0.01408,0.007 0.03611,-0.0111 0.04725,0 0.01114,0.0111 -0.01114,0.0361 0,0.0472 0.02228,0.0223 0.07222,-0.0223 0.0945,0 0.01114,0.0111 -0.01114,0.0361 0,0.0472 0.01114,0.0111 0.03611,-0.0111 0.04725,0 0.01114,0.0111 -0.01114,0.0361 0,0.0473 0.01114,0.0111 0.03611,-0.0111 0.04725,0 0.01114,0.0111 -0.01114,0.0361 0,0.0472 0.02228,0.0223 0.07222,-0.0223 0.09449,0 0.02228,0.0223 -0.02228,0.0722 0,0.0945 0.01114,0.0111 0.03611,-0.0111 0.04725,0 0.01114,0.0111 -0.01114,0.0361 0,0.0472 0.02228,0.0223 0.07222,-0.0223 0.0945,0 0.01114,0.0111 -0.01114,0.0361 0,0.0473 0.01114,0.0111 0.03611,-0.0111 0.04725,0 0.01114,0.0111 -0.01114,0.0361 0,0.0472 0.01114,0.0111 0.03611,-0.0111 0.04725,0 0.01114,0.0111 -0.01114,0.0361 0,0.0472 0.03159,0.0316 0.0629,-0.0316 0.09449,0 0.01114,0.0111 -0.01114,0.0361 0,0.0472 0.01114,0.0111 0.03611,-0.0111 0.04725,0 0.01114,0.0111 -0.01114,0.0361 0,0.0472 0.03159,0.0316 0.0629,-0.0316 0.0945,0 0.01114,0.0111 -0.01114,0.0361 0,0.0472 0.01114,0.0111 0.03611,-0.0111 0.04725,0 0.02228,0.0223 -0.02228,0.0722 0,0.0945 0.01114,0.0111 0.03611,-0.0111 0.04725,0 0.02363,0.0236 -0.02363,0.11812 0,0.14174 0.01114,0.0111 0.03611,-0.0111 0.04725,0 0.0019,0.002 0,0.17164 0,0.18899 0,0.0157 0,0.0315 0,0.0473 0,0.0157 -0.01114,0.0361 0,0.0472 0.01114,0.0111 0.03611,-0.0111 0.04725,0 0.01463,0.0146 -0.01463,0.2216 0,0.23623 0.01114,0.0111 0.03611,-0.0111 0.04725,0 0.02363,0.0236 -0.02363,0.11812 0,0.14174 0.01114,0.0111 0.03611,-0.0111 0.04725,0 0.01114,0.0111 -0.01114,0.0361 0,0.0472 0.01114,0.0111 0.03611,-0.0111 0.04725,0 0.02228,0.0223 -0.02228,0.0722 0,0.0945 0.01114,0.0111 0.03611,-0.0111 0.04725,0 0.02228,0.0223 -0.02228,0.0722 0,0.0945 0.01114,0.0111 0.03611,-0.0111 0.04725,0 0.01114,0.0111 0,0.0315 0,0.0472 0,0.0329 0.0085,0.21915 0,0.23623 -0.01262,0.0252 -0.116867,0.11687 -0.141741,0.14174 -0.01574,0.0157 -0.0315,0.0315 -0.04725,0.0472 0,0.0157 0.01114,0.0361 0,0.0472 -0.01114,0.0111 -0.03611,-0.0111 -0.04725,0 -0.01114,0.0111 0.01114,0.0361 0,0.0472 -0.01114,0.0111 -0.03316,-0.007 -0.04725,0 -0.1567,0.1567 0.04454,-0.0223 -0.09449,0.0472 -0.196631,0.0983 0.05051,-0.003 -0.04725,0.0945 -0.01114,0.0111 -0.03611,-0.0111 -0.04725,0 -0.01114,0.0111 0.01114,0.0361 0,0.0472 -0.02228,0.0223 -0.07222,-0.0223 -0.0945,0 -0.01114,0.0111 0,0.0315 0,0.0472 -0.01574,0 -0.03611,-0.0111 -0.04725,0 -0.01114,0.0111 0.01407,0.0402 0,0.0473 -0.02817,0.0141 -0.06632,-0.0141 -0.09449,0 -0.01408,0.007 0.01114,0.0361 0,0.0472 -0.01114,0.0111 -0.03611,-0.0111 -0.04725,0 -0.01114,0.0111 0.01114,0.0361 0,0.0472 -0.01114,0.0111 -0.03316,-0.007 -0.04725,0 -0.01992,0.01 -0.02733,0.0373 -0.04725,0.0473 -0.02817,0.0141 -0.06632,-0.0141 -0.09449,0 -0.01992,0.01 -0.02733,0.0373 -0.04725,0.0472 -0.01408,0.007 -0.03316,-0.007 -0.04725,0 -0.01992,0.01 -0.02733,0.0373 -0.04725,0.0472 -0.01407,0.007 -0.03611,-0.0111 -0.04725,0 -0.01114,0.0111 0.01114,0.0361 0,0.0473 -0.01699,0.017 -0.158423,-0.0153 -0.18899,0 -0.01408,0.007 0.01114,0.0361 0,0.0472 -0.0019,0.002 -0.171638,0 -0.18899,0 -0.110802,0 0.02228,-0.0111 -0.09449,0.0472 -0.01408,0.007 -0.0315,0 -0.04725,0 -0.04578,0 -0.25531,-0.009 -0.283483,0 -0.03341,0.0111 -0.06108,0.0361 -0.09449,0.0472 -0.01495,0.005 -0.0315,0 -0.04725,0 -0.0315,0 -0.063,0 -0.0945,0 -0.110241,0 -0.220485,0 -0.33073,0 -0.09449,0 -0.188987,0 -0.28348,0 -0.04725,0 -0.09591,0.0115 -0.141743,0 -0.02162,-0.005 -0.02733,-0.0373 -0.04725,-0.0472 -0.01408,-0.007 -0.0315,0 -0.04725,0 -0.03468,0 -0.267013,0.008 -0.283484,0 -0.01992,-0.01 -0.02611,-0.0402 -0.04725,-0.0472 -0.02988,-0.01 -0.063,0 -0.09449,0 -0.05306,0 -0.296953,0.0113 -0.33073,0 -0.03341,-0.0111 -0.06109,-0.0361 -0.0945,-0.0472 -0.03803,-0.0127 -0.158795,0.0151 -0.188987,0 -0.01992,-0.01 -0.02611,-0.0402 -0.04725,-0.0473 -0.02988,-0.01 -0.06632,0.0141 -0.0945,0 -0.01408,-0.007 0.01114,-0.0361 0,-0.0472 -0.01294,-0.0129 -0.163357,0.0128 -0.188987,0 -0.01992,-0.01 -0.02733,-0.0373 -0.04725,-0.0472 -0.01873,-0.009 -0.132083,0.01 -0.141743,0 -0.01114,-0.0111 0.01114,-0.0361 0,-0.0473 -0.03159,-0.0316 -0.0629,0.0316 -0.09449,0 -0.01114,-0.0111 0.01114,-0.0361 0,-0.0472 -0.01138,-0.0114 -0.177621,0.0114 -0.18899,0 -0.01114,-0.0111 0.01114,-0.0361 0,-0.0472 -0.02228,-0.0223 -0.07222,0.0223 -0.09449,0 -0.01114,-0.0111 0.01114,-0.0361 0,-0.0473 -0.02228,-0.0223 -0.06632,0.0141 -0.09449,0 -0.01992,-0.01 -0.02733,-0.0373 -0.04725,-0.0472 -0.01407,-0.007 -0.03231,0.005 -0.04725,0 -0.03341,-0.0111 -0.06109,-0.0361 -0.09449,-0.0472 -0.02988,-0.01 -0.06632,0.0141 -0.09449,0 -0.01992,-0.01 -0.02733,-0.0373 -0.04725,-0.0473 -0.01409,-0.007 -0.03611,0.0111 -0.04725,0 -0.01114,-0.0111 0.01114,-0.0361 0,-0.0472 -0.02362,-0.0236 -0.118118,0.0236 -0.141741,0 -0.01114,-0.0111 0.01114,-0.0361 0,-0.0472 -0.02362,-0.0236 -0.118118,0.0236 -0.141742,0 -0.01114,-0.0111 0.01114,-0.0361 0,-0.0472 -0.0097,-0.01 -0.123008,0.009 -0.141741,0 -0.01992,-0.01 -0.02733,-0.0373 -0.04725,-0.0472 -0.01409,-0.007 -0.03611,0.0111 -0.04725,0 -0.01114,-0.0111 0.01409,-0.0402 0,-0.0472 -0.0378,-0.0189 -0.103944,0.0189 -0.141741,0 -0.01992,-0.01 -0.02733,-0.0373 -0.04725,-0.0472 -0.0378,-0.0189 -0.103943,0.0189 -0.141741,0 -0.03984,-0.0199 -0.05465,-0.0746 -0.09449,-0.0945 -0.02817,-0.0141 -0.07222,0.0223 -0.0945,0 -0.01114,-0.0111 0.01114,-0.0361 0,-0.0473 -0.01114,-0.0111 -0.03316,0.007 -0.04725,0 -0.01992,-0.01 -0.02733,-0.0373 -0.04725,-0.0472 -0.01409,-0.007 -0.03611,0.0111 -0.04725,0 -0.09776,-0.0978 0.149384,0.004 -0.04725,-0.0945 -0.01409,-0.007 -0.03316,0.007 -0.04725,0 -0.01992,-0.01 -0.02733,-0.0373 -0.04725,-0.0472 -0.01409,-0.007 -0.03611,0.0111 -0.04725,0 -0.01114,-0.0111 0.007,-0.0332 0,-0.0472 -0.01,-0.0199 -0.0315,-0.0315 -0.04725,-0.0473 -0.01575,-0.0157 -0.02733,-0.0373 -0.04725,-0.0472 -0.01409,-0.007 -0.03316,0.007 -0.04725,0 -0.01992,-0.01 -0.0315,-0.0315 -0.04725,-0.0472 -0.01575,-0.0157 -0.03729,-0.0273 -0.04725,-0.0472 -0.007,-0.0141 0.01114,-0.0361 0,-0.0472 -0.01114,-0.0111 -0.03316,0.007 -0.04725,0 -0.01992,-0.01 -0.02733,-0.0373 -0.04725,-0.0472 -0.01409,-0.007 -0.03611,0.0111 -0.04725,0 -0.02227,-0.0223 0.02227,-0.0722 0,-0.0945 -0.02227,-0.0223 -0.06632,0.0141 -0.09449,0 -0.01992,-0.01 -0.02733,-0.0373 -0.04725,-0.0473 -0.01409,-0.007 -0.03611,0.0111 -0.04725,0 -0.01114,-0.0111 0.01114,-0.0361 0,-0.0472 -0.09776,-0.0978 0.0038,0.14938 -0.09449,-0.0472 -0.007,-0.0141 0.01114,-0.0361 0,-0.0473 -0.01114,-0.0111 -0.03316,0.007 -0.04725,0 -0.01992,-0.01 -0.02733,-0.0373 -0.04725,-0.0472 -0.01409,-0.007 -0.03611,0.0111 -0.04725,0 -0.01114,-0.0111 0.007,-0.0332 0,-0.0472 -0.03618,-0.0724 -0.08419,-0.037 -0.141741,-0.0945 -0.09776,-0.0977 0.149384,0.004 -0.04725,-0.0945 -0.02817,-0.0141 -0.07222,0.0223 -0.09449,0 -0.01114,-0.0111 0.01114,-0.0361 0,-0.0472 -0.01114,-0.0111 -0.03611,0.0111 -0.04725,0 -0.01114,-0.0111 0.01114,-0.0361 0,-0.0472 -0.01114,-0.0111 -0.03611,0.0111 -0.04725,0 -0.09776,-0.0978 0.149384,0.004 -0.04725,-0.0945 -0.01409,-0.007 -0.03611,0.0111 -0.04725,0 -0.01114,-0.0111 0.01114,-0.0361 0,-0.0472 -0.01114,-0.0111 -0.03316,0.007 -0.04725,0 -0.03984,-0.0199 -0.05465,-0.0746 -0.09449,-0.0945 -0.01409,-0.007 -0.03611,0.0111 -0.04725,0 -0.01114,-0.0111 0.01114,-0.0361 0,-0.0472 -0.01114,-0.0111 -0.03316,0.007 -0.04725,0 -0.01992,-0.01 -0.02733,-0.0373 -0.04725,-0.0472 -0.01409,-0.007 -0.03611,0.0111 -0.04725,0 -0.09776,-0.0978 0.149384,0.004 -0.04725,-0.0945 -0.01409,-0.007 -0.03316,0.007 -0.04725,0 -0.01992,-0.01 -0.0315,-0.0315 -0.04725,-0.0473 -0.01575,-0.0157 -0.03729,-0.0273 -0.04725,-0.0472 -0.007,-0.0141 0.01114,-0.0361 0,-0.0472 -0.02227,-0.0223 -0.07222,0.0223 -0.09449,0 -0.01114,-0.0111 0.01114,-0.0361 0,-0.0473 -0.02227,-0.0223 -0.06632,0.0141 -0.09449,0 -0.03984,-0.0199 -0.05465,-0.0746 -0.09449,-0.0945 -0.01409,-0.007 -0.03611,0.0111 -0.04725,0 -0.01114,-0.0111 0.01114,-0.0361 0,-0.0472 -0.01114,-0.0111 -0.03316,0.007 -0.04725,0 -0.01992,-0.01 -0.02733,-0.0373 -0.04725,-0.0472 -0.01409,-0.007 -0.03611,0.0111 -0.04725,0 -0.03155,-0.0316 0.03155,-0.0629 0,-0.0945 -0.01114,-0.0111 -0.03611,0.0111 -0.04725,0 -0.01114,-0.0111 0.01114,-0.0361 0,-0.0472 -0.01114,-0.0111 -0.03611,0.0111 -0.04725,0 -0.09776,-0.0978 0.149384,0.004 -0.04725,-0.0945 -0.125993,0 0.01575,0.0157 -0.04725,-0.0472 -0.02227,-0.0223 -0.07222,0.0223 -0.09449,0 -0.02227,-0.0223 0.02227,-0.0722 0,-0.0945 -0.01114,-0.0111 -0.03611,0.0111 -0.04725,0 -0.01114,-0.0111 0.01114,-0.0361 0,-0.0472 -0.01114,-0.0111 -0.03316,0.007 -0.04725,0 -0.01992,-0.01 -0.02733,-0.0373 -0.04725,-0.0473 -0.01409,-0.007 -0.03611,0.0111 -0.04725,0 -0.01114,-0.0111 0.01114,-0.0361 0,-0.0472 -0.01114,-0.0111 -0.03611,0.0111 -0.04725,0 -0.01114,-0.0111 0.01114,-0.0361 0,-0.0472 -0.01114,-0.0111 -0.03611,0.0111 -0.04725,0 -0.01114,-0.0111 0,-0.0315 0,-0.0473 -0.01575,0 -0.03611,0.0111 -0.04725,0 -0.01114,-0.0111 0.01114,-0.0361 0,-0.0472 -0.09776,-0.0978 0.0038,0.14938 -0.09449,-0.0472 -0.007,-0.0141 0.01114,-0.0361 0,-0.0473 -0.09776,-0.0978 0.0038,0.14938 -0.09449,-0.0472 0,-0.12599 0.01575,0.0157 -0.04725,-0.0472 -0.02227,-0.0223 0.02227,-0.0722 0,-0.0945 -0.02227,-0.0223 -0.07222,0.0223 -0.09449,0 -0.02227,-0.0223 0.01409,-0.0663 0,-0.0945 -0.01,-0.0199 -0.03729,-0.0273 -0.04725,-0.0472 -0.007,-0.0141 0.01114,-0.0361 0,-0.0472 -0.01114,-0.0111 -0.03611,0.0111 -0.04725,0 -0.01114,-0.0111 0.01114,-0.0361 0,-0.0472 -0.01114,-0.0111 -0.03611,0.0111 -0.04725,0 -0.02227,-0.0223 0.02227,-0.0722 0,-0.0945 -0.01114,-0.0111 -0.03611,0.0111 -0.04725,0 -0.01114,-0.0111 0.01114,-0.0361 0,-0.0472 -0.01114,-0.0111 -0.03611,0.0111 -0.04725,0 -0.01114,-0.0111 0.0064,-0.0328 0,-0.0472 -0.02895,-0.0656 -0.0693,-0.12547 -0.103957,-0.1882 z"
       id="path916"
       inkscape:connector-curvature="0" />
  </g>
</svg>
