<?xml version="1.0" encoding="UTF-8" standalone="no"?>
<!-- Created with Inkscape (http://www.inkscape.org/) -->

<svg
   xmlns:dc="http://purl.org/dc/elements/1.1/"
   xmlns:cc="http://creativecommons.org/ns#"
   xmlns:rdf="http://www.w3.org/1999/02/22-rdf-syntax-ns#"
   xmlns:svg="http://www.w3.org/2000/svg"
   xmlns="http://www.w3.org/2000/svg"
   xmlns:sodipodi="http://sodipodi.sourceforge.net/DTD/sodipodi-0.dtd"
   xmlns:inkscape="http://www.inkscape.org/namespaces/inkscape"
   width="300"
   height="472"
   viewBox="0 0 79.374998 124.88327"
   version="1.1"
   id="svg8"
   inkscape:version="0.92.4 (5da689c313, 2019-01-14)"
   sodipodi:docname="helmet3.svg"
   inkscape:export-filename="D:\niebezpieczenstwo\EPI\Rok III\Interfejsy - projekt\miecze_i_topory\static\img\items\helmets\helmet3.png"
   inkscape:export-xdpi="158"
   inkscape:export-ydpi="158">
  <defs
     id="defs2" />
  <sodipodi:namedview
     id="base"
     pagecolor="#ffffff"
     bordercolor="#666666"
     borderopacity="1.0"
     inkscape:pageopacity="0.0"
     inkscape:pageshadow="2"
     inkscape:zoom="1.4"
     inkscape:cx="119.96673"
     inkscape:cy="230.36115"
     inkscape:document-units="mm"
     inkscape:current-layer="layer1"
     showgrid="false"
     units="px"
     inkscape:snap-global="false"
     inkscape:window-width="1680"
     inkscape:window-height="987"
     inkscape:window-x="-4"
     inkscape:window-y="-4"
     inkscape:window-maximized="1" />
  <metadata
     id="metadata5">
    <rdf:RDF>
      <cc:Work
         rdf:about="">
        <dc:format>image/svg+xml</dc:format>
        <dc:type
           rdf:resource="http://purl.org/dc/dcmitype/StillImage" />
        <dc:title />
      </cc:Work>
    </rdf:RDF>
  </metadata>
  <g
     inkscape:label="Layer 1"
     inkscape:groupmode="layer"
     id="layer1"
     transform="translate(0,-172.1167)">
    <path
       style="opacity:1;fill:#c8b7b7;fill-opacity:1;fill-rule:evenodd;stroke:none;stroke-width:0.30000001;stroke-miterlimit:4;stroke-dasharray:none;stroke-opacity:1"
       d="m 31.537802,194.00104 c -0.765394,1.96064 -0.103668,4.54358 -0.684878,4.54358 -0.581209,0 -0.208664,-1.64977 -1.052373,-3.20723 -1.791331,-3.30673 9.750795,-9.87673 11.642928,-8.75308 -0.02924,-0.34504 -8.853148,4.72057 -9.905677,7.41673 z"
       id="path1299"
       inkscape:connector-curvature="0"
       sodipodi:nodetypes="scscs" />
    <path
       style="opacity:1;fill:#c8b7b7;fill-opacity:1;fill-rule:evenodd;stroke:none;stroke-width:0.30000001;stroke-miterlimit:4;stroke-dasharray:none;stroke-opacity:1"
       d="m 48.490514,194.76648 c 0.765394,1.96064 0.103668,4.54358 0.684878,4.54358 0.581209,0 0.165674,-1.67384 1.052373,-3.20723 1.938297,-3.35195 -9.284892,-9.28509 -12.077241,-7.88445 0.02924,-0.34504 9.287461,3.85194 10.33999,6.5481 z"
       id="path1299-2"
       inkscape:connector-curvature="0"
       sodipodi:nodetypes="scscs" />
    <path
       style="opacity:1;fill:#666666;fill-opacity:1;fill-rule:evenodd;stroke:none;stroke-width:0.30000001;stroke-miterlimit:4;stroke-dasharray:none;stroke-opacity:1"
       d="m 50.709108,193.88056 c -0.24568,2.84934 -3.205294,-4.7006 -10.718346,-5.58519 -8.158457,-0.96058 -10.762528,9.89372 -10.49869,7.05346 -1.756051,-2.18211 2.188827,-14.85946 10.192333,-14.38998 7.960096,0.46693 12.079201,10.07235 11.024703,12.92171 z"
       id="path1291"
       inkscape:connector-curvature="0"
       sodipodi:nodetypes="cscsc" />
    <path
       style="opacity:1;fill:#c8b7b7;fill-opacity:1;fill-rule:evenodd;stroke:none;stroke-width:0.30000001;stroke-miterlimit:4;stroke-dasharray:none;stroke-opacity:1"
       d="m 35.308468,202.52026 c 3.71796,1.16506 6.868922,0.96933 9.697554,0 0.120195,-0.0412 0.229344,0.10229 0.229344,0.22935 -0.26767,0.90088 -2.506273,2.60681 -3.302944,3.14493 -1.644975,-0.28671 -3.126651,0.97259 -3.712881,0.10474 l -3.140417,-3.24967 c -0.0883,-0.0914 0.108101,-0.26734 0.229344,-0.22935 z"
       id="rect1317"
       inkscape:connector-curvature="0"
       sodipodi:nodetypes="sscccss" />
    <path
       style="opacity:1;fill:#666666;fill-opacity:0.99541285;fill-rule:evenodd;stroke:none;stroke-width:0.30000001;stroke-miterlimit:4;stroke-dasharray:none;stroke-opacity:1"
       d="m 30.03198,194.97869 c 10.554849,18.02723 14.61301,9.26421 19.917832,-0.7087 0.05967,-0.11218 0.717471,-0.48806 0.725437,-0.36125 0.270906,4.31248 -0.654655,7.45918 -3.41704,9.16815 -2.484279,1.53692 -2.864681,3.01289 -2.171854,4.26489 0.282894,0.72639 1.083272,2.24422 1.71398,2.49422 2.029366,0.69593 3.910558,0.59793 5.599434,1.12484 -1.872049,6.63798 -28.539884,4.78101 -23.701706,-0.25094 1.511135,-0.47292 3.79604,-0.34635 5.516621,-0.91619 2.96157,-2.04137 0.459412,-5.43736 -0.886713,-6.17393 -1.528132,-0.80301 -4.627794,-4.24521 -4.092299,-8.90784 0.0145,-0.12622 0.732112,0.15711 0.796308,0.26675 z"
       id="rect1296"
       inkscape:connector-curvature="0"
       sodipodi:nodetypes="ssssccccccss" />
  </g>
</svg>
