<?xml version="1.0" encoding="UTF-8" standalone="no"?>
<!-- Created with Inkscape (http://www.inkscape.org/) -->

<svg
   xmlns:dc="http://purl.org/dc/elements/1.1/"
   xmlns:cc="http://creativecommons.org/ns#"
   xmlns:rdf="http://www.w3.org/1999/02/22-rdf-syntax-ns#"
   xmlns:svg="http://www.w3.org/2000/svg"
   xmlns="http://www.w3.org/2000/svg"
   xmlns:sodipodi="http://sodipodi.sourceforge.net/DTD/sodipodi-0.dtd"
   xmlns:inkscape="http://www.inkscape.org/namespaces/inkscape"
   width="300"
   height="472"
   viewBox="0 0 79.374998 124.88327"
   version="1.1"
   id="svg8"
   inkscape:version="0.92.4 (5da689c313, 2019-01-14)"
   sodipodi:docname="helmet2.svg"
   inkscape:export-filename="D:\niebezpieczenstwo\EPI\Rok III\Interfejsy - projekt\miecze_i_topory\static\img\items\helmets\helmet2.png"
   inkscape:export-xdpi="158"
   inkscape:export-ydpi="158">
  <defs
     id="defs2" />
  <sodipodi:namedview
     id="base"
     pagecolor="#ffffff"
     bordercolor="#666666"
     borderopacity="1.0"
     inkscape:pageopacity="0.0"
     inkscape:pageshadow="2"
     inkscape:zoom="2.8"
     inkscape:cx="141.19989"
     inkscape:cy="398.88967"
     inkscape:document-units="mm"
     inkscape:current-layer="layer1"
     showgrid="false"
     units="px"
     inkscape:snap-global="false"
     inkscape:window-width="1680"
     inkscape:window-height="987"
     inkscape:window-x="-4"
     inkscape:window-y="-4"
     inkscape:window-maximized="1" />
  <metadata
     id="metadata5">
    <rdf:RDF>
      <cc:Work
         rdf:about="">
        <dc:format>image/svg+xml</dc:format>
        <dc:type
           rdf:resource="http://purl.org/dc/dcmitype/StillImage" />
        <dc:title />
      </cc:Work>
    </rdf:RDF>
  </metadata>
  <g
     inkscape:label="Layer 1"
     inkscape:groupmode="layer"
     id="layer1"
     transform="translate(0,-172.1167)">
    <ellipse
       style="opacity:1;fill:#ffcc00;fill-opacity:1;stroke:none;stroke-width:0.09380402;stroke-miterlimit:4;stroke-dasharray:none;stroke-opacity:1"
       id="path885"
       cx="-267.81104"
       cy="-136.02367"
       rx="7.5842915"
       ry="3.3941002"
       transform="matrix(-0.58012734,-0.81452579,0.85474514,-0.51904793,0,0)" />
    <path
       style="opacity:1;fill:#ffcc00;fill-opacity:1;stroke:none;stroke-width:0.08484767;stroke-miterlimit:4;stroke-dasharray:none;stroke-opacity:1"
       d="m 44.397751,259.80539 3.817515,-0.24714 c 0.318096,-0.0205 0.586429,0.21489 0.611999,0.52719 0.716987,8.75836 3.426295,17.87144 1.755986,26.20471 -0.06162,0.30743 -0.218265,0.58096 -0.536361,0.60154 l -3.817515,0.24714 c -0.318096,0.0206 -0.467121,-0.24807 -0.611999,-0.52718 -4.264622,-8.21591 -1.310896,-17.45002 -1.755987,-26.20471 -0.016,-0.31295 0.218266,-0.58094 0.536362,-0.60155 z"
       id="rect883-7"
       inkscape:connector-curvature="0"
       sodipodi:nodetypes="sssssssss" />
    <ellipse
       style="opacity:1;fill:#ffcc00;fill-opacity:1;stroke:none;stroke-width:0.08485352;stroke-miterlimit:4;stroke-dasharray:none;stroke-opacity:1"
       id="path885-5"
       cx="-260.23743"
       cy="-135.94138"
       rx="6.9532809"
       ry="3.029331"
       transform="matrix(-0.60980924,-0.79254823,0.80255745,-0.59657484,0,0)" />
    <path
       style="opacity:1;fill:#ffcc00;fill-opacity:1;stroke:none;stroke-width:0.09367852;stroke-miterlimit:4;stroke-dasharray:none;stroke-opacity:1"
       d="m 35.290085,258.97031 h 4.358007 c 0.363131,0 0.650199,0.26997 0.655474,0.60525 0.147867,9.40178 2.533278,19.32009 0,28.10296 -0.09345,0.32401 -0.292343,0.60526 -0.655474,0.60526 h -4.358007 c -0.363133,0 -0.512059,-0.2972 -0.655476,-0.60526 -4.221601,-9.0678 -0.160903,-18.72388 0,-28.10296 0.0057,-0.33528 0.292343,-0.60525 0.655476,-0.60525 z"
       id="rect883"
       inkscape:connector-curvature="0"
       sodipodi:nodetypes="sssssssss" />
    <ellipse
       style="opacity:1;fill:#ffcc00;fill-opacity:1;stroke:none;stroke-width:0.08299516;stroke-miterlimit:4;stroke-dasharray:none;stroke-opacity:1"
       id="path817"
       cx="39.736664"
       cy="193.66934"
       rx="10.345499"
       ry="11.385141" />
    <path
       style="opacity:1;fill:#ffcc00;fill-opacity:1;stroke:none;stroke-width:0.09367852;stroke-miterlimit:4;stroke-dasharray:none;stroke-opacity:1"
       d="m 36.707321,202.89521 6.625589,-2.48639 c 0.33641,-0.12631 1.155272,4.13758 1.080646,4.46571 -0.503013,2.21176 1.594823,4.15669 2.605561,6.21314 0.150075,0.30533 -2.897903,-1.06037 -3.261037,-1.06037 h -7.192483 c -0.363132,0 -2.583865,1.37535 -2.459325,1.06037 0.811875,-2.05338 2.8526,-4.00359 1.803851,-6.21314 -0.145753,-0.3071 0.460788,-1.85307 0.797198,-1.97932 z"
       id="rect819"
       inkscape:connector-curvature="0"
       sodipodi:nodetypes="sssssssss" />
    <ellipse
       style="opacity:1;fill:#ffcc00;fill-opacity:1;stroke:none;stroke-width:0.15827398;stroke-miterlimit:4;stroke-dasharray:none;stroke-opacity:1"
       id="path821"
       cx="39.878395"
       cy="224.94576"
       rx="33.163383"
       ry="15.180189" />
    <path
       style="opacity:1;fill:#ffcc00;fill-opacity:1;stroke:none;stroke-width:0.08778077;stroke-miterlimit:4;stroke-dasharray:none;stroke-opacity:1"
       d="m 62.270762,235.70671 c -9.970803,10.71319 -10.090338,29.05977 -20.408237,29.28332 -11.057794,0.23957 -11.514735,-19.31539 -24.81765,-29.65346 -11.1985651,-8.70272 13.546497,-19.28956 24.81765,-19.28956 11.271156,0 29.948107,9.40952 20.408237,19.6597 z"
       id="path823"
       inkscape:connector-curvature="0"
       sodipodi:nodetypes="sssss" />
    <ellipse
       style="opacity:1;fill:#ffcc00;fill-opacity:1;stroke:none;stroke-width:0.09367852;stroke-miterlimit:4;stroke-dasharray:none;stroke-opacity:1"
       id="path829"
       cx="9.6251717"
       cy="240.02101"
       rx="6.6141171"
       ry="19.709869" />
    <ellipse
       style="opacity:1;fill:#ffcc00;fill-opacity:1;stroke:none;stroke-width:0.09367852;stroke-miterlimit:4;stroke-dasharray:none;stroke-opacity:1"
       id="path829-1"
       cx="69.553085"
       cy="240.29861"
       rx="6.6141171"
       ry="19.709869" />
    <path
       style="opacity:1;fill:#2b1100;fill-opacity:1;stroke:none;stroke-width:0.06315529;stroke-miterlimit:4;stroke-dasharray:none;stroke-opacity:1"
       d="m 34.069633,259.47796 h 13.912623 c 0.281244,0 0.430755,0.2196 0.50766,0.4701 1.384908,4.51083 -1.839069,8.21356 0,10.64702 0.254985,0.33741 -0.524129,0.85682 -0.607872,0.6089 l -1.418601,-4.19957 -2.600107,4.06076 -1.008997,-4.56385 -1.102273,4.934 -3.515825,-5.61679 -0.778564,5.43171 -2.301435,-3.99428 c -0.132463,-0.22989 -1.550206,3.59633 -1.594272,3.33912 -0.565754,-3.30247 -1.1496,-6.59707 0,-10.64702 0.07149,-0.25189 0.226418,-0.4701 0.507663,-0.4701 z"
       id="rect865-9"
       inkscape:connector-curvature="0"
       sodipodi:nodetypes="sssssccccccssss" />
    <path
       style="opacity:1;fill:#552200;fill-opacity:1;stroke:none;stroke-width:0.08142788;stroke-miterlimit:4;stroke-dasharray:none;stroke-opacity:1"
       d="m 32.455603,257.00736 h 17.9635 c 0.36313,0 0.556173,0.28273 0.655474,0.60524 1.788145,5.80767 1.409199,10.11456 0,13.70798 -0.123645,0.31526 -0.292344,0.60524 -0.655474,0.60524 l -1.961042,-5.2282 -3.357166,5.2282 -1.302782,-5.87594 -5.110908,5.87594 -0.851817,-6.75503 -3.657808,6.75503 -0.318982,-4.90434 c -0.02176,-0.33469 -2.001573,4.63026 -2.058469,4.2991 -0.730482,-4.25192 -1.484326,-8.49368 0,-13.70798 0.09231,-0.32428 0.292343,-0.60524 0.655474,-0.60524 z"
       id="rect865"
       inkscape:connector-curvature="0"
       sodipodi:nodetypes="sssssccccccssss" />
    <ellipse
       style="opacity:1;fill:#ffcc00;fill-opacity:1;stroke:none;stroke-width:0.0761634;stroke-miterlimit:4;stroke-dasharray:none;stroke-opacity:1"
       id="path906"
       cx="10.727522"
       cy="260.65628"
       rx="3.9083424"
       ry="4.8117995" />
    <ellipse
       style="opacity:1;fill:#ffcc00;fill-opacity:1;stroke:none;stroke-width:0.0761634;stroke-miterlimit:4;stroke-dasharray:none;stroke-opacity:1"
       id="path906-4"
       cx="69.753517"
       cy="260.65628"
       rx="3.9083424"
       ry="4.8117995" />
    <path
       style="opacity:1;fill:#28170b;fill-opacity:1;fill-rule:evenodd;stroke:none;stroke-width:0.30000001;stroke-miterlimit:4;stroke-dasharray:none;stroke-opacity:1"
       d="m 50.51394,189.89177 c -5e-6,3.87474 -2.717938,-3.14042 -10.356694,-3.14042 -7.638756,0 -11.292131,7.41606 -11.292136,3.54133 -6e-6,-3.87474 3.118834,-10.89124 10.757597,-10.89124 7.638764,0 10.891239,6.6156 10.891233,10.49033 z"
       id="path912"
       inkscape:connector-curvature="0"
       sodipodi:nodetypes="sssss" />
    <path
       style="opacity:1;fill:#784421;fill-opacity:1;fill-rule:evenodd;stroke:none;stroke-width:0.33303177;stroke-miterlimit:4;stroke-dasharray:none;stroke-opacity:1"
       d="m 32.191442,182.47644 0.555153,6.69873 c 0.01693,0.0507 -0.927618,0.85496 -1.118005,0.76776 l -0.513811,-6.17311 c 0.36932,-0.6267 0.968547,-1.18227 1.076663,-1.29338 z"
       id="rect915"
       inkscape:connector-curvature="0"
       sodipodi:nodetypes="ccccc" />
    <path
       style="opacity:1;fill:#784421;fill-opacity:1;fill-rule:evenodd;stroke:none;stroke-width:0.36244413;stroke-miterlimit:4;stroke-dasharray:none;stroke-opacity:1"
       d="m 35.740316,180.12094 0.360259,7.36815 c -0.261819,0.14782 -0.720221,0.34309 -1.064851,0.4016 l -0.324823,-7.30319 c -0.29004,0.0967 0.933613,-0.58003 1.029415,-0.46656 z"
       id="rect915-7"
       inkscape:connector-curvature="0"
       sodipodi:nodetypes="ccccc" />
    <path
       style="opacity:1;fill:#784421;fill-opacity:1;fill-rule:evenodd;stroke:none;stroke-width:0.36244413;stroke-miterlimit:4;stroke-dasharray:none;stroke-opacity:1"
       d="m 40.529987,179.47721 0.01181,7.25594 c -0.146959,0.0209 -1.087379,-0.0186 -1.306993,0.0354 l -0.224419,-7.32681 c 0.693554,-0.19475 1.501649,-0.0666 1.519601,0.0355 z"
       id="rect915-7-1"
       inkscape:connector-curvature="0"
       sodipodi:nodetypes="ccccc" />
    <path
       style="opacity:1;fill:#784421;fill-opacity:1;fill-rule:evenodd;stroke:none;stroke-width:0.36244413;stroke-miterlimit:4;stroke-dasharray:none;stroke-opacity:1"
       d="m 43.804311,180.18977 -0.260033,7.05077 c 0.261819,0.14782 0.720221,0.34309 1.064851,0.4016 l 0.374936,-6.88558 c 0.29004,0.0967 -1.083952,-0.68026 -1.179754,-0.56679 z"
       id="rect915-7-0"
       inkscape:connector-curvature="0"
       sodipodi:nodetypes="ccccc" />
    <circle
       style="opacity:1;fill:#1a1a1a;fill-opacity:1;fill-rule:evenodd;stroke:none;stroke-width:0.30000001;stroke-miterlimit:4;stroke-dasharray:none;stroke-opacity:1"
       id="path980"
       cx="32.055641"
       cy="188.37167"
       r="0.41760862" />
    <circle
       style="opacity:1;fill:#1a1a1a;fill-opacity:1;fill-rule:evenodd;stroke:none;stroke-width:0.30000001;stroke-miterlimit:4;stroke-dasharray:none;stroke-opacity:1"
       id="path980-8"
       cx="35.346397"
       cy="184.14546"
       r="0.41760862" />
    <circle
       style="opacity:1;fill:#1a1a1a;fill-opacity:1;fill-rule:evenodd;stroke:none;stroke-width:0.30000001;stroke-miterlimit:4;stroke-dasharray:none;stroke-opacity:1"
       id="path980-3"
       cx="31.738256"
       cy="184.68001"
       r="0.41760862" />
    <circle
       style="opacity:1;fill:#1a1a1a;fill-opacity:1;fill-rule:evenodd;stroke:none;stroke-width:0.30000001;stroke-miterlimit:4;stroke-dasharray:none;stroke-opacity:1"
       id="path980-3-8"
       cx="35.546844"
       cy="186.71796"
       r="0.41760862" />
    <circle
       style="opacity:1;fill:#1a1a1a;fill-opacity:1;fill-rule:evenodd;stroke:none;stroke-width:0.30000001;stroke-miterlimit:4;stroke-dasharray:none;stroke-opacity:1"
       id="path980-3-3"
       cx="35.24617"
       cy="181.63983"
       r="0.41760862" />
    <circle
       style="opacity:1;fill:#1a1a1a;fill-opacity:1;fill-rule:evenodd;stroke:none;stroke-width:0.30000001;stroke-miterlimit:4;stroke-dasharray:none;stroke-opacity:1"
       id="path980-3-1"
       cx="39.789749"
       cy="183.71117"
       r="0.41760862" />
    <circle
       style="opacity:1;fill:#1a1a1a;fill-opacity:1;fill-rule:evenodd;stroke:none;stroke-width:0.30000001;stroke-miterlimit:4;stroke-dasharray:none;stroke-opacity:1"
       id="path980-3-2"
       cx="39.756344"
       cy="180.97165"
       r="0.41760862" />
    <circle
       style="opacity:1;fill:#1a1a1a;fill-opacity:1;fill-rule:evenodd;stroke:none;stroke-width:0.30000001;stroke-miterlimit:4;stroke-dasharray:none;stroke-opacity:1"
       id="path980-3-4"
       cx="39.789753"
       cy="185.8159"
       r="0.41760862" />
    <circle
       style="opacity:1;fill:#1a1a1a;fill-opacity:1;fill-rule:evenodd;stroke:none;stroke-width:0.30000001;stroke-miterlimit:4;stroke-dasharray:none;stroke-opacity:1"
       id="path980-3-5"
       cx="44.099472"
       cy="186.55089"
       r="0.41760862" />
    <circle
       style="opacity:1;fill:#1a1a1a;fill-opacity:1;fill-rule:evenodd;stroke:none;stroke-width:0.30000001;stroke-miterlimit:4;stroke-dasharray:none;stroke-opacity:1"
       id="path980-3-50"
       cx="44.266514"
       cy="184.17888"
       r="0.41760862" />
    <circle
       style="opacity:1;fill:#1a1a1a;fill-opacity:1;fill-rule:evenodd;stroke:none;stroke-width:0.30000001;stroke-miterlimit:4;stroke-dasharray:none;stroke-opacity:1"
       id="path980-3-6"
       cx="44.333332"
       cy="182.04073"
       r="0.41760862" />
    <path
       style="opacity:1;fill:#28170b;fill-opacity:1;fill-rule:evenodd;stroke:none;stroke-width:0.15485986;stroke-miterlimit:4;stroke-dasharray:none;stroke-opacity:1"
       d="m 30.68128,189.20179 c 1.460803,-0.0134 -1.167077,1.93175 -1.119617,7.33025 0.04746,5.3985 2.866067,7.95467 1.405264,7.96813 -1.460803,0.0135 -4.125451,-2.16631 -4.172911,-7.56482 -0.04746,-5.39851 2.426462,-7.7201 3.887264,-7.73356 z"
       id="path912-3"
       inkscape:connector-curvature="0"
       sodipodi:nodetypes="sssss" />
    <path
       style="opacity:1;fill:#784421;fill-opacity:1;fill-rule:evenodd;stroke:none;stroke-width:0.17191082;stroke-miterlimit:4;stroke-dasharray:none;stroke-opacity:1"
       d="m 27.999487,202.17653 2.522019,-0.41561 c 0.01902,-0.0122 0.328091,0.6526 0.296396,0.78745 l -2.324112,0.38457 c -0.238567,-0.25883 -0.451745,-0.68039 -0.494303,-0.75641 z"
       id="rect915-9"
       inkscape:connector-curvature="0"
       sodipodi:nodetypes="ccccc" />
    <path
       style="opacity:1;fill:#784421;fill-opacity:1;fill-rule:evenodd;stroke:none;stroke-width:0.1870935;stroke-miterlimit:4;stroke-dasharray:none;stroke-opacity:1"
       d="m 27.0894,199.67664 2.775605,-0.28021 c 0.05733,0.18452 0.133817,0.50781 0.15802,0.75116 l -2.751335,0.25494 c 0.03825,0.20464 -0.224477,-0.6578 -0.18229,-0.72589 z"
       id="rect915-7-4"
       inkscape:connector-curvature="0"
       sodipodi:nodetypes="ccccc" />
    <path
       style="opacity:1;fill:#784421;fill-opacity:1;fill-rule:evenodd;stroke:none;stroke-width:0.1870935;stroke-miterlimit:4;stroke-dasharray:none;stroke-opacity:1"
       d="m 26.81695,196.29389 2.735463,-0.0336 c 0.0088,0.10379 -2.85e-4,0.76854 0.02144,0.92356 l -2.760862,0.18406 c -0.07773,-0.48948 -0.03445,-1.06102 0.0039,-1.07406 z"
       id="rect915-7-1-5"
       inkscape:connector-curvature="0"
       sodipodi:nodetypes="ccccc" />
    <path
       style="opacity:1;fill:#784421;fill-opacity:1;fill-rule:evenodd;stroke:none;stroke-width:0.17191082;stroke-miterlimit:4;stroke-dasharray:none;stroke-opacity:1"
       d="m 27.912756,191.5085 2.42712,0.25194 c 0.01922,0.0118 0.316558,-0.65854 0.282505,-0.79279 l -2.203921,-0.27201 c -0.233978,0.26319 -0.464483,0.73606 -0.505704,0.81286 z"
       id="rect915-75-2"
       inkscape:connector-curvature="0"
       sodipodi:nodetypes="ccccc" />
    <path
       style="opacity:1;fill:#784421;fill-opacity:1;fill-rule:evenodd;stroke:none;stroke-width:0.1870935;stroke-miterlimit:4;stroke-dasharray:none;stroke-opacity:1"
       d="m 27.065245,193.97736 2.659808,0.15928 c 0.05408,-0.18555 0.124867,-0.51019 0.144787,-0.75395 l -2.598238,-0.24106 c 0.03465,-0.20531 -0.249728,0.76842 -0.206357,0.83573 z"
       id="rect915-7-0-2"
       inkscape:connector-curvature="0"
       sodipodi:nodetypes="ccccc" />
    <ellipse
       style="opacity:1;fill:#1a1a1a;fill-opacity:1;fill-rule:evenodd;stroke:none;stroke-width:0.15485987;stroke-miterlimit:4;stroke-dasharray:none;stroke-opacity:1"
       id="path980-2"
       cx="-202.52194"
       cy="28.44372"
       rx="0.29514602"
       ry="0.15744802"
       transform="matrix(-0.00879098,-0.99996136,0.99995754,-0.0092151,0,0)" />
    <ellipse
       style="opacity:1;fill:#1a1a1a;fill-opacity:1;fill-rule:evenodd;stroke:none;stroke-width:0.15485987;stroke-miterlimit:4;stroke-dasharray:none;stroke-opacity:1"
       id="path980-8-3"
       cx="-200.1962"
       cy="26.850344"
       rx="0.29514602"
       ry="0.15744802"
       transform="matrix(-0.00879098,-0.99996136,0.99995754,-0.0092151,0,0)" />
    <ellipse
       style="opacity:1;fill:#1a1a1a;fill-opacity:1;fill-rule:evenodd;stroke:none;stroke-width:0.15485987;stroke-miterlimit:4;stroke-dasharray:none;stroke-opacity:1"
       id="path980-3-02"
       cx="-202.74626"
       cy="27.051872"
       rx="0.29514602"
       ry="0.15744802"
       transform="matrix(-0.00879098,-0.99996136,0.99995754,-0.0092151,0,0)" />
    <ellipse
       style="opacity:1;fill:#1a1a1a;fill-opacity:1;fill-rule:evenodd;stroke:none;stroke-width:0.15485987;stroke-miterlimit:4;stroke-dasharray:none;stroke-opacity:1"
       id="path980-3-8-1"
       cx="-200.05453"
       cy="27.820232"
       rx="0.29514602"
       ry="0.15744802"
       transform="matrix(-0.00879098,-0.99996136,0.99995754,-0.0092151,0,0)" />
    <ellipse
       style="opacity:1;fill:#1a1a1a;fill-opacity:1;fill-rule:evenodd;stroke:none;stroke-width:0.15485987;stroke-miterlimit:4;stroke-dasharray:none;stroke-opacity:1"
       id="path980-3-3-8"
       cx="-200.26703"
       cy="25.905659"
       rx="0.29514602"
       ry="0.15744802"
       transform="matrix(-0.00879098,-0.99996136,0.99995754,-0.0092151,0,0)" />
    <ellipse
       style="opacity:1;fill:#1a1a1a;fill-opacity:1;fill-rule:evenodd;stroke:none;stroke-width:0.15485987;stroke-miterlimit:4;stroke-dasharray:none;stroke-opacity:1"
       id="path980-3-1-5"
       cx="-197.05585"
       cy="26.686594"
       rx="0.29514602"
       ry="0.15744802"
       transform="matrix(-0.00879098,-0.99996136,0.99995754,-0.0092151,0,0)" />
    <ellipse
       style="opacity:1;fill:#1a1a1a;fill-opacity:1;fill-rule:evenodd;stroke:none;stroke-width:0.15485987;stroke-miterlimit:4;stroke-dasharray:none;stroke-opacity:1"
       id="path980-3-2-5"
       cx="-197.07945"
       cy="25.653738"
       rx="0.29514602"
       ry="0.15744802"
       transform="matrix(-0.00879098,-0.99996136,0.99995754,-0.0092151,0,0)" />
    <ellipse
       style="opacity:1;fill:#1a1a1a;fill-opacity:1;fill-rule:evenodd;stroke:none;stroke-width:0.15485987;stroke-miterlimit:4;stroke-dasharray:none;stroke-opacity:1"
       id="path980-3-4-5"
       cx="-197.05583"
       cy="27.480129"
       rx="0.29514602"
       ry="0.15744802"
       transform="matrix(-0.00879098,-0.99996136,0.99995754,-0.0092151,0,0)" />
    <ellipse
       style="opacity:1;fill:#1a1a1a;fill-opacity:1;fill-rule:evenodd;stroke:none;stroke-width:0.15485987;stroke-miterlimit:4;stroke-dasharray:none;stroke-opacity:1"
       id="path980-3-5-0"
       cx="-194.00995"
       cy="27.757235"
       rx="0.29514602"
       ry="0.15744802"
       transform="matrix(-0.00879098,-0.99996136,0.99995754,-0.0092151,0,0)" />
    <ellipse
       style="opacity:1;fill:#1a1a1a;fill-opacity:1;fill-rule:evenodd;stroke:none;stroke-width:0.15485987;stroke-miterlimit:4;stroke-dasharray:none;stroke-opacity:1"
       id="path980-3-50-7"
       cx="-193.89189"
       cy="26.86294"
       rx="0.29514602"
       ry="0.15744802"
       transform="matrix(-0.00879098,-0.99996136,0.99995754,-0.0092151,0,0)" />
    <ellipse
       style="opacity:1;fill:#1a1a1a;fill-opacity:1;fill-rule:evenodd;stroke:none;stroke-width:0.15485987;stroke-miterlimit:4;stroke-dasharray:none;stroke-opacity:1"
       id="path980-3-6-8"
       cx="-193.84465"
       cy="26.056808"
       rx="0.29514602"
       ry="0.15744802"
       transform="matrix(-0.00879098,-0.99996136,0.99995754,-0.0092151,0,0)" />
    <ellipse
       style="opacity:1;fill:#1a1a1a;fill-opacity:1;fill-rule:evenodd;stroke:none;stroke-width:0.15485987;stroke-miterlimit:4;stroke-dasharray:none;stroke-opacity:1"
       id="path980-3-0-7"
       cx="-191.38904"
       cy="26.951115"
       rx="0.29514602"
       ry="0.15744802"
       transform="matrix(-0.00879098,-0.99996136,0.99995754,-0.0092151,0,0)" />
    <ellipse
       style="opacity:1;fill:#1a1a1a;fill-opacity:1;fill-rule:evenodd;stroke:none;stroke-width:0.15485987;stroke-miterlimit:4;stroke-dasharray:none;stroke-opacity:1"
       id="path980-3-35-6"
       cx="-191.53072"
       cy="28.08474"
       rx="0.29514602"
       ry="0.15744802"
       transform="matrix(-0.00879098,-0.99996136,0.99995754,-0.0092151,0,0)" />
    <path
       style="opacity:1;fill:#28170b;fill-opacity:1;fill-rule:evenodd;stroke:none;stroke-width:0.16481213;stroke-miterlimit:4;stroke-dasharray:none;stroke-opacity:1"
       d="m 48.43192,188.92432 c -1.714503,-0.0129 1.369765,1.86425 1.314063,7.07412 -0.0557,5.20988 -3.363822,7.67673 -1.649319,7.68972 1.714503,0.013 4.841925,-2.09062 4.897627,-7.3005 0.0557,-5.20988 -2.847869,-7.45035 -4.562371,-7.46334 z"
       id="path912-3-2"
       inkscape:connector-curvature="0"
       sodipodi:nodetypes="sssss" />
    <path
       style="opacity:1;fill:#784421;fill-opacity:1;fill-rule:evenodd;stroke:none;stroke-width:0.1829589;stroke-miterlimit:4;stroke-dasharray:none;stroke-opacity:1"
       d="m 51.579464,201.44571 -2.960022,-0.40109 c -0.02232,-0.0118 -0.385071,0.6298 -0.347871,0.75994 l 2.727744,0.37113 c 0.279999,-0.24978 0.5302,-0.65661 0.580149,-0.72998 z"
       id="rect915-9-5"
       inkscape:connector-curvature="0"
       sodipodi:nodetypes="ccccc" />
    <path
       style="opacity:1;fill:#784421;fill-opacity:1;fill-rule:evenodd;stroke:none;stroke-width:0.1991173;stroke-miterlimit:4;stroke-dasharray:none;stroke-opacity:1"
       d="m 52.647608,199.03317 -3.257649,-0.27042 c -0.06729,0.17807 -0.157057,0.49007 -0.185464,0.72491 l 3.229164,0.24604 c -0.04489,0.19749 0.263462,-0.63482 0.213949,-0.70053 z"
       id="rect915-7-4-9"
       inkscape:connector-curvature="0"
       sodipodi:nodetypes="ccccc" />
    <path
       style="opacity:1;fill:#784421;fill-opacity:1;fill-rule:evenodd;stroke:none;stroke-width:0.1991173;stroke-miterlimit:4;stroke-dasharray:none;stroke-opacity:1"
       d="m 52.967374,195.76861 -3.210535,-0.0324 c -0.01033,0.10016 3.42e-4,0.74169 -0.02516,0.89129 l 3.240345,0.17763 c 0.09123,-0.47238 0.04043,-1.02395 -0.0046,-1.03653 z"
       id="rect915-7-1-5-6"
       inkscape:connector-curvature="0"
       sodipodi:nodetypes="ccccc" />
    <path
       style="opacity:1;fill:#784421;fill-opacity:1;fill-rule:evenodd;stroke:none;stroke-width:0.1829589;stroke-miterlimit:4;stroke-dasharray:none;stroke-opacity:1"
       d="m 51.681258,191.15043 -2.848642,0.24314 c -0.02256,0.0114 -0.371535,-0.63553 -0.331568,-0.76509 l 2.58668,-0.26251 c 0.274613,0.25399 0.54515,0.71034 0.59353,0.78446 z"
       id="rect915-75-2-6"
       inkscape:connector-curvature="0"
       sodipodi:nodetypes="ccccc" />
    <path
       style="opacity:1;fill:#784421;fill-opacity:1;fill-rule:evenodd;stroke:none;stroke-width:0.1991173;stroke-miterlimit:4;stroke-dasharray:none;stroke-opacity:1"
       d="m 52.675958,193.53303 -3.121741,0.15371 c -0.06347,-0.17907 -0.146553,-0.49236 -0.169933,-0.72761 l 3.049478,-0.23263 c -0.04067,-0.19814 0.293099,0.74157 0.242196,0.80653 z"
       id="rect915-7-0-2-4"
       inkscape:connector-curvature="0"
       sodipodi:nodetypes="ccccc" />
    <ellipse
       style="opacity:1;fill:#1a1a1a;fill-opacity:1;fill-rule:evenodd;stroke:none;stroke-width:0.16481254;stroke-miterlimit:4;stroke-dasharray:none;stroke-opacity:1"
       id="path980-2-4"
       cx="-201.14268"
       cy="-51.121838"
       rx="0.28483871"
       ry="0.18478973"
       transform="matrix(0.01069109,-0.99994285,-0.99997129,-0.00757728,0,0)" />
    <ellipse
       style="opacity:1;fill:#1a1a1a;fill-opacity:1;fill-rule:evenodd;stroke:none;stroke-width:0.16481254;stroke-miterlimit:4;stroke-dasharray:none;stroke-opacity:1"
       id="path980-8-3-8"
       cx="-198.89816"
       cy="-52.991913"
       rx="0.28483871"
       ry="0.18478973"
       transform="matrix(0.01069109,-0.99994285,-0.99997129,-0.00757728,0,0)" />
    <ellipse
       style="opacity:1;fill:#1a1a1a;fill-opacity:1;fill-rule:evenodd;stroke:none;stroke-width:0.16481254;stroke-miterlimit:4;stroke-dasharray:none;stroke-opacity:1"
       id="path980-3-02-6"
       cx="-201.35916"
       cy="-52.755386"
       rx="0.28483871"
       ry="0.18478973"
       transform="matrix(0.01069109,-0.99994285,-0.99997129,-0.00757728,0,0)" />
    <ellipse
       style="opacity:1;fill:#1a1a1a;fill-opacity:1;fill-rule:evenodd;stroke:none;stroke-width:0.16481254;stroke-miterlimit:4;stroke-dasharray:none;stroke-opacity:1"
       id="path980-3-8-1-2"
       cx="-198.76143"
       cy="-51.853596"
       rx="0.28483871"
       ry="0.18478973"
       transform="matrix(0.01069109,-0.99994285,-0.99997129,-0.00757728,0,0)" />
    <ellipse
       style="opacity:1;fill:#1a1a1a;fill-opacity:1;fill-rule:evenodd;stroke:none;stroke-width:0.16481254;stroke-miterlimit:4;stroke-dasharray:none;stroke-opacity:1"
       id="path980-3-3-8-5"
       cx="-198.96652"
       cy="-54.100643"
       rx="0.28483871"
       ry="0.18478973"
       transform="matrix(0.01069109,-0.99994285,-0.99997129,-0.00757728,0,0)" />
    <ellipse
       style="opacity:1;fill:#1a1a1a;fill-opacity:1;fill-rule:evenodd;stroke:none;stroke-width:0.16481254;stroke-miterlimit:4;stroke-dasharray:none;stroke-opacity:1"
       id="path980-3-1-5-7"
       cx="-195.86748"
       cy="-53.184097"
       rx="0.28483871"
       ry="0.18478973"
       transform="matrix(0.01069109,-0.99994285,-0.99997129,-0.00757728,0,0)" />
    <ellipse
       style="opacity:1;fill:#1a1a1a;fill-opacity:1;fill-rule:evenodd;stroke:none;stroke-width:0.16481254;stroke-miterlimit:4;stroke-dasharray:none;stroke-opacity:1"
       id="path980-3-2-5-9"
       cx="-195.89024"
       cy="-54.396317"
       rx="0.28483871"
       ry="0.18478973"
       transform="matrix(0.01069109,-0.99994285,-0.99997129,-0.00757728,0,0)" />
    <ellipse
       style="opacity:1;fill:#1a1a1a;fill-opacity:1;fill-rule:evenodd;stroke:none;stroke-width:0.16481254;stroke-miterlimit:4;stroke-dasharray:none;stroke-opacity:1"
       id="path980-3-4-5-8"
       cx="-195.86746"
       cy="-52.252758"
       rx="0.28483871"
       ry="0.18478973"
       transform="matrix(0.01069109,-0.99994285,-0.99997129,-0.00757728,0,0)" />
    <ellipse
       style="opacity:1;fill:#1a1a1a;fill-opacity:1;fill-rule:evenodd;stroke:none;stroke-width:0.16481254;stroke-miterlimit:4;stroke-dasharray:none;stroke-opacity:1"
       id="path980-3-5-0-9"
       cx="-192.92795"
       cy="-51.927536"
       rx="0.28483871"
       ry="0.18478973"
       transform="matrix(0.01069109,-0.99994285,-0.99997129,-0.00757728,0,0)" />
    <ellipse
       style="opacity:1;fill:#1a1a1a;fill-opacity:1;fill-rule:evenodd;stroke:none;stroke-width:0.16481254;stroke-miterlimit:4;stroke-dasharray:none;stroke-opacity:1"
       id="path980-3-50-7-8"
       cx="-192.81401"
       cy="-52.977127"
       rx="0.28483871"
       ry="0.18478973"
       transform="matrix(0.01069109,-0.99994285,-0.99997129,-0.00757728,0,0)" />
    <ellipse
       style="opacity:1;fill:#1a1a1a;fill-opacity:1;fill-rule:evenodd;stroke:none;stroke-width:0.16481254;stroke-miterlimit:4;stroke-dasharray:none;stroke-opacity:1"
       id="path980-3-6-8-1"
       cx="-192.76843"
       cy="-53.923248"
       rx="0.28483871"
       ry="0.18478973"
       transform="matrix(0.01069109,-0.99994285,-0.99997129,-0.00757728,0,0)" />
    <ellipse
       style="opacity:1;fill:#1a1a1a;fill-opacity:1;fill-rule:evenodd;stroke:none;stroke-width:0.16481254;stroke-miterlimit:4;stroke-dasharray:none;stroke-opacity:1"
       id="path980-3-0-7-6"
       cx="-190.39857"
       cy="-52.873638"
       rx="0.28483871"
       ry="0.18478973"
       transform="matrix(0.01069109,-0.99994285,-0.99997129,-0.00757728,0,0)" />
    <ellipse
       style="opacity:1;fill:#1a1a1a;fill-opacity:1;fill-rule:evenodd;stroke:none;stroke-width:0.16481254;stroke-miterlimit:4;stroke-dasharray:none;stroke-opacity:1"
       id="path980-3-35-6-6"
       cx="-190.53529"
       cy="-51.543156"
       rx="0.28483871"
       ry="0.18478973"
       transform="matrix(0.01069109,-0.99994285,-0.99997129,-0.00757728,0,0)" />
    <path
       transform="rotate(-64.028155)"
       style="opacity:1;fill:#502d16;fill-opacity:1;fill-rule:evenodd;stroke:none;stroke-width:0.30000001;stroke-miterlimit:4;stroke-dasharray:none;stroke-opacity:1"
       d="m -158.02946,109.10565 1.08705,-0.37765 c 0.12001,-0.0417 0.56324,0.17628 0.54027,0.30123 l -0.38009,2.0676 c -0.023,0.12495 -0.28389,0.44277 -0.40007,0.39133 l -0.61543,-0.27251 c -0.11617,-0.0514 -0.40262,0.0234 -0.42349,-0.10193 l -0.32129,-1.92958 c -0.0209,-0.12533 0.39303,-0.0368 0.51305,-0.0785 z"
       id="rect1210"
       inkscape:connector-curvature="0"
       sodipodi:nodetypes="cssssssssc" />
    <circle
       style="opacity:1;fill:#1a1a1a;fill-opacity:1;fill-rule:evenodd;stroke:none;stroke-width:0.192;stroke-miterlimit:4;stroke-dasharray:none;stroke-opacity:1"
       id="path980-9"
       cx="30.652475"
       cy="189.87508"
       r="0.26726952" />
    <circle
       style="opacity:1;fill:#1a1a1a;fill-opacity:1;fill-rule:evenodd;stroke:none;stroke-width:0.192;stroke-miterlimit:4;stroke-dasharray:none;stroke-opacity:1"
       id="path980-9-5"
       cx="29.633509"
       cy="189.15678"
       r="0.26726952" />
    <circle
       style="opacity:1;fill:#1a1a1a;fill-opacity:1;fill-rule:evenodd;stroke:none;stroke-width:0.192;stroke-miterlimit:4;stroke-dasharray:none;stroke-opacity:1"
       id="path980-9-0"
       cx="29.433056"
       cy="190.02541"
       r="0.26726952" />
    <path
       style="opacity:1;fill:#784421;fill-opacity:1;fill-rule:evenodd;stroke:none;stroke-width:0.33303177;stroke-miterlimit:4;stroke-dasharray:none;stroke-opacity:1"
       d="m 47.286368,182.49516 -0.38811,6.43146 c -0.01693,0.0507 0.927618,0.85496 1.118005,0.76776 l 0.413585,-5.83902 c -0.36932,-0.6267 -1.035364,-1.24909 -1.14348,-1.3602 z"
       id="rect915-75"
       inkscape:connector-curvature="0"
       sodipodi:nodetypes="ccccc" />
    <path
       style="opacity:1;fill:#502d16;fill-opacity:1;fill-rule:evenodd;stroke:none;stroke-width:0.30000001;stroke-miterlimit:4;stroke-dasharray:none;stroke-opacity:1"
       d="m 50.502488,189.5454 -0.13654,-1.14265 c -0.01507,-0.12615 -0.130874,-0.94819 -0.223927,-0.8617 l -1.456104,1.35348 c -0.09306,0.0865 -0.319747,0.67566 -0.318348,0.80271 l 0.0066,0.59931 c 0.0014,0.127 0.285211,0.33676 0.407024,0.30064 l 1.875413,-0.55618 c 0.121825,-0.0361 -0.139036,-0.36945 -0.154108,-0.49561 z"
       id="rect1210-3"
       inkscape:connector-curvature="0"
       sodipodi:nodetypes="cssssssssc" />
    <circle
       style="opacity:1;fill:#1a1a1a;fill-opacity:1;fill-rule:evenodd;stroke:none;stroke-width:0.30000001;stroke-miterlimit:4;stroke-dasharray:none;stroke-opacity:1"
       id="path980-3-0"
       cx="47.796097"
       cy="184.66695"
       r="0.41760862" />
    <circle
       style="opacity:1;fill:#1a1a1a;fill-opacity:1;fill-rule:evenodd;stroke:none;stroke-width:0.30000001;stroke-miterlimit:4;stroke-dasharray:none;stroke-opacity:1"
       id="path980-3-35"
       cx="47.595642"
       cy="187.67372"
       r="0.41760862" />
    <circle
       style="opacity:1;fill:#1a1a1a;fill-opacity:1;fill-rule:evenodd;stroke:none;stroke-width:0.192;stroke-miterlimit:4;stroke-dasharray:none;stroke-opacity:1"
       id="path980-9-9"
       cx="-48.882751"
       cy="189.37584"
       r="0.26726952"
       transform="scale(-1,1)" />
    <circle
       style="opacity:1;fill:#1a1a1a;fill-opacity:1;fill-rule:evenodd;stroke:none;stroke-width:0.192;stroke-miterlimit:4;stroke-dasharray:none;stroke-opacity:1"
       id="path980-9-5-4"
       cx="-49.937153"
       cy="188.4095"
       r="0.26726952"
       transform="scale(-1,1)" />
    <circle
       style="opacity:1;fill:#1a1a1a;fill-opacity:1;fill-rule:evenodd;stroke:none;stroke-width:0.192;stroke-miterlimit:4;stroke-dasharray:none;stroke-opacity:1"
       id="path980-9-0-6"
       cx="-49.953339"
       cy="189.75766"
       r="0.26726952"
       transform="scale(-1,1)" />
  </g>
</svg>
